<?xml version="1.0" encoding="utf-8"?>
<!-- Generator: Adobe Illustrator 21.0.0, SVG Export Plug-In . SVG Version: 6.00 Build 0)  -->
<svg version="1.1" id="Layer_1" xmlns="http://www.w3.org/2000/svg" xmlns:xlink="http://www.w3.org/1999/xlink" x="0px" y="0px"
	 viewBox="0 0 1190.6 841.9" style="enable-background:new 0 0 1190.6 841.9;" xml:space="preserve">
<g>
	<path d="M619,734.9c-5.1-1.5-10.4-2.6-15.2-4.7c-13.3-5.8-23.3-14.9-25.7-30c-1.4-8.6,1.4-15.6,9-21.2c3.1,4.9,5.8,9.8,8.9,14.3
		c7.5,10.8,18.4,12,28.2,3.1c12.4-11.2,17.8-26.1,22-41.8c7.4-27.6,2.4-53.3-10.6-78.2c-11.6-22.3-26.8-42.1-42.6-61.3
		c-5.8-7.1-11.9-13.9-17.9-20.9c-5.9-6.8-6.3-14.6-3.5-22.6c5.7-16.2,16.4-28.1,32.2-34.8c4.1-1.7,9.2-1.6,13.7-1.4
		c18.5,0.9,36.9,2.2,55.4,3.1c3.5,0.2,7-0.3,10.5-0.7c14.4-1.7,22.1-12.6,18.1-26.7c-1.7-6-4.6-11.7-7.3-18c2-0.4,3.8-0.9,5.7-1.1
		c4.7-0.7,9.5-1.5,10.8-7.1c1.3-5.5-0.5-9.8-6.2-12.6c2.3-1.9,4.4-3.4,6.2-5.3c4.1-4,4.3-6.9,1-11.4c-1.2-1.6-2.5-3.1-3.9-4.6
		c-4.9-5.3-4.4-12.5,1.4-16.9c0.9-0.7,1.9-1.4,2.8-2c12.1-7.7,8.6-12,2-19.9c-9.2-11.1-19.2-21.7-29-32.3
		c-4.7-5.1-6.7-10.8-6.3-17.7c0.4-7.6,0.6-15.3,0-22.9c-0.5-6.3-3.6-9.8-8.7-9.7c-2.9,0-5.9,2-8.5,3.6c-1.4,0.9-2.4,2.9-2.8,4.6
		c-3.4,13.7-14.3,19.7-25.7,25.3c-4.8,2.4-9.4,5.2-14.4,7c-9,3.2-10.1,23.1-3.3,28.5c2,1.5,4.7,2.1,7,3c-3.7,4.8-8.7,5.5-14.1,1.6
		c-7.5-5.5-7.9-5.7-12.8,2.7c-3.9,6.7-7,13.9-9.9,21.1c-1,2.4-0.7,5.6-0.2,8.3c2,10.8,9.1,13.9,18.6,8.4c0.8-0.5,1.7-0.9,2.9-1.5
		c1.6,5.4,0.7,9.7-3,13.6c-4.9,5.1-11.4,6.9-18,8c-7.7,1.3-15.6,1.8-23.3,3c-1.8,0.3-4,1.7-4.8,3.2c-9.5,18.1-18.5,36.5-28.3,54.5
		c-4.4,8.1-10.3,15.5-15.7,23c-2.7,3.7-6.3,4.7-11,3.6c-28.4-7-49.6-24.2-67.4-46.4c-18-22.4-30-47.9-36.9-75.8
		c-9.4-38-8.6-75.7,5.9-112.4c12-30.4,31.9-54.8,58.3-73.8c20.4-14.7,42.2-26.7,67.3-31.3c4.2-0.8,8.4-1.6,12.7-2.5
		c7.7,0,15.3,0,23,0c1.4,0.3,2.9,0.7,4.3,1c9.1,2,18.4,3.5,27.2,6.2c31.5,9.6,58,27.9,82.5,49.3c22.3,19.4,42.1,41.3,59.2,65.4
		c10.1,14.2,19.6,29,27.8,44.3c9,16.8,13.1,35.5,17.4,54c8.8,38.3,13.6,77.1,14.5,116.3c1.2,51-3.7,101.2-20.9,149.6
		c-6.6,18.6-15.2,36.2-26.2,52.6c-11.9,17.6-26.3,33.1-41.8,47.5c-13.9,12.8-28.9,24.2-46.6,31.3c-8.9,3.6-18.3,5.8-27.5,8.6
		C630.3,734.9,624.7,734.9,619,734.9z"/>
</g>
</svg>
