<?xml version="1.0" encoding="utf-8"?>
<!-- Generator: Adobe Illustrator 21.0.0, SVG Export Plug-In . SVG Version: 6.00 Build 0)  -->
<svg version="1.1" id="Layer_1" xmlns="http://www.w3.org/2000/svg" xmlns:xlink="http://www.w3.org/1999/xlink" x="0px" y="0px"
	 viewBox="0 0 488.2 463" style="enable-background:new 0 0 488.2 463;" xml:space="preserve">
<style type="text/css">
	.st0{fill:none;stroke:#000000;stroke-miterlimit:10;}
</style>
<title>engraving</title>
<path class="st0" d="M337,0.5c3.7,2.3,7.8,4.1,11.1,6.9c14.9,12.3,16,35.3,2.6,50.6c-2,2.2-4.1,4.3-7.4,7.8
	c20.9-1.7,38.5-7.2,54.3-21.5c-6.3,14.6-26,21.5-51.3,26.4c3.1,2.5,6.2,4.7,8.8,7.3c8.3,8,10.4,20.6,5.2,30.9
	c-4.9,9.8-14.3,14.9-24.9,13.4c-8.7-1.2-15.8-8.3-16.7-16.6s3-15,10.2-17.6c4.7-1.7,8.7-0.6,11.9,2.9c2.3,2.6,4.2,5.6,0.7,10.2
	c-1.7-5.1-2.5-10.2-8.6-9.9c-4.7,0.3-7.5,3.2-9.1,7.2c-2.1,5.4-0.5,10.2,3.6,14.1c5.1,5,15,5.8,21.4,2c7.4-4.5,11.2-15.3,8.6-24.6
	c-2.8-9.8-13.1-18.4-23.2-17.5c-16.9,1.4-33.6,4.1-48.8,12.4c-13,7.1-21.3,18.2-28.7,33c13.8-4.7,26.3-8.8,36,3.8
	c3.4,4.4,3.2,9.4,0.1,14.4c-0.2-6.9-1.6-13.2-8.5-15.9c-7.2-2.9-15.4-2.2-22,1.9c-8,4.4-13.9,11.7-16.8,20.4c-2.9,8.8-6,17.5-9,26.3
	c3.1,1.9,5.5-0.4,8-0.9c8.8-1.5,17.8,2.3,22.8,9.8c4.5,6.7,4.5,16-0.2,22.3c-4.2,5.7-10,8.5-17.2,6.7c-5.7-1.5-9.6-5.2-10.4-11.3
	c-0.6-4.4,0.8-8.3,4.9-10.4c3.4-1.8,6.7-1.6,10,3.2c-4.9-0.9-9.3-2.3-11.1,2.9c-1.2,3.3,0,6,2.2,8.2c3.1,3.3,7.9,4.3,12,2.6
	c4.5-1.6,7.7-5.6,8.4-10.3c1.1-5.8-1.1-11.7-5.8-15.4c-8.9-7.4-23.8-5.1-29.1,5.2c-11.4,22.3-22.3,45-33.3,67.5
	c-0.6,1.2-1.2,2.5,0,4c3.5,0.4,4.9-2.8,6.9-4.7c19.9-18.5,43.4-27.9,70.4-28.5c12.5-0.3,25.1,0.3,37.7,0.1
	c30.2-0.4,49.8-34.2,35-60.2c-10.2-18-34-22.3-48.3-8.6c-8.1,7.8-9.9,19.2-4.4,28.4c4.5,7.5,12.8,11,20.2,8.5
	c6.7-2.2,8.8-7.3,7.4-17.3c5,3.9,5.8,6.6,3.6,12c-4.5,10.6-17.8,14.2-28.5,7.6c-15.7-9.7-16.2-33.8-1-46.5c16-13.3,41.3-10,53.7,7
	c15.7,21.6,10.8,49.3-11.4,64.6c-2.7,1.8-5.5,3.4-9.4,5.8c33,3.3,64,3.1,91.5-17c11.6-8.5,14.3-25.1,5.8-36.3
	c-7.7-10.2-23.5-11.2-31.5-1.9c-4.1,4.8-5,10.2-2.9,16.1c1.7,4.8,5.1,7.7,10.2,8.1c4.1,0.3,7.6-1.1,9.7-4.8
	c2.6-4.5-1.1-7.4-4.4-11.2c5.7-0.3,7.6,2.5,8.5,6c1.3,4.8-0.8,8.6-4.6,11.4c-5.4,4-11.3,4.1-16.8,0.5c-6.4-4.2-9.8-10.3-8.7-18.1
	c1.6-11.8,11.4-19.9,23.3-19.7c13.4,0.3,24.5,10.5,25.8,23.8c0.4,4.6,0.4,9.2,0.1,13.8l16.7-17.8c-4.2,9.7-11.2,17.1-19.2,25.2
	c25.9-2.8,44.5,5.5,54.5,29.2v24.6c-7,14.6-17.8,23.3-34.9,21.8c-11.5-1-20.7-11.5-19.7-22.2c0.6-6.1,3.5-10.5,11.7-12.7
	c-3.4,4.8-7.4,7-7.5,11.8c-0.2,4.1,1.2,8.2,4,11.2c6.2,7.1,16.5,8.3,26.3,3.2c9.5-5,14.5-12.8,15.1-23.6
	c0.8-13.9-4.9-24.6-16.4-31.8c-14.6-9-30-9.7-45.1-1.3c-8.1,4.5-15.8,9.7-26,13.4c3.8,1.8,6.3,3,8.8,4.2
	c24.8,12.6,29.1,46.3,7.7,60.9c-9.4,6.5-19.5,6.8-29.4,1.6c-9.3-4.9-12.9-12.9-10.4-23.4c0.7-3-1.2-5.2-1.9-7.8
	c-1.7-6.6,0.2-9.8,7.1-11.5c-1.2,2.1-3.1,4-3.4,6.1c-0.5,3.5-1.1,8,5.3,5c2.5-1.2,5.5-2.9,8.2,0.1c-0.5,2.4-2.5,1.5-3.9,2
	s-2.6,0.7-3,3.2c5.7,1.4,10.6,0.2,14.6-4c5.1-5.4,5.2-11.9,3-18.4c-2.7-7.9-11-14.5-19.6-13.5c-27.3,3-54.5,0.7-81.8-0.1
	c-1.1,0.1-2.1,0.4-3.1,0.7c10.4,8.3,17.2,18.9,25.2,28.4c8.2,9.8,17.9,16.8,31.5,16.3c1.1,0,2.2,0.2,3.2,0.6c0.4,0.1,0.6,0.8,1.5,2
	c-12.4,2.5-22.9-0.7-32-8.2c-5.6-4.4-10.6-9.5-14.8-15.2c-22.7-32-57.4-24-80.3-7.6c16.2-3.3,30.2-1.1,42.5,8.9
	c16.3,13.3,21.1,33.9,11.9,51.4c-9.6,18.3-35,23.4-47.6,9.1c-5-5.6-9.2-11.7-15.2-16.5c-4.9-3.9-4.7-9.6,0.3-14.9
	c1.9,3-0.3,4.9,0,7.1c0.5,3.6,2.1,6.3,5.4,7.6c4.2,1.6,4-2.6,5.3-4.5c2-3,4.3-5.5,9-6.2c-0.8,4.6-6.5,6-5.7,11.2
	c6.5-0.6,10.1-4.9,12-10.2c2.8-7.1,1.4-15.1-3.5-20.8c-8-9.8-27.5-12.2-36.4-3.2c-18.2,18.3-33.1,38.4-32.4,66.3
	c0.2,6.6,1.4,7.8,7.1,4.2c25.6-16,51.9-15.5,79.1-4c16.3,6.9,32.3,14.6,49.9,18.1s32.8-1.9,47.7-10c2.4-1.3,4.8-2.6,7.2-3.8
	c0.4-0.2,1,0.2,3.3,0.6c-14.5,10-28.4,17.8-45.2,18.9c-14.5,1-28.1-3-41.6-7.6s-26.5-10.4-42.3-13.8c9.9,7.7,16.2,15.8,13,27.6
	c-1.4,5-4.5,8.6-10.2,9.2c-0.2-0.6-0.6-1.3-0.5-1.5c10.3-10.3,9.3-20.9-3.1-28.9c-14.5-9.3-29.7-7.5-43.5,0.5
	c-26,15-22.5,9.6-17.6,38c4.9,28.4,18.1,53,35.2,75.8c2.5,3.3,4.8,6.6,7.2,9.9h-72.1c9.8-12.6,14.1-26.8,12.8-42.8
	c-1.7-20.9-3.2-41.9-4.7-62.8c-0.3-3.9-2.2-6.4-5.1-8.8c-14.8-12.6-29.1-25.6-40.3-41.7c-2.4-3.4-5.6-4-9.2-3.9
	c-21.5,0.9-37.1-8.9-48.3-26.7c-2-3.2-4.4-6.3-6.3-9.6c-9.1-15.7-22.6-24-40.8-24.6c-1.3,0-2.6-0.4-3.7-1c14.9-3,28.3-0.5,39.7,10.1
	c8.1,7.5,13.9,16.8,21,25.1c8.3,9.8,18.5,15,31.5,14.6c4.2-0.1,6.1-0.7,4.2-5.6c-5.4-13.9-7.2-28.5-7.2-43.4
	c0-8.2-3.8-14.8-11.2-18.7c-6.5-3.4-13.1-3.4-19.4,0.9c-6.4,4.5-8.6,14-4.6,20.4c3,4.8,7.6,5.9,12.9,4.8c4-0.8,5.8-3.7,6.1-7.7
	c0.5-5.7-4.1-6-9-6.8c4.6-3.6,7.7-2.3,10.3,0.4c3,3,3.5,6.7,1.9,10.6c-2,5.1-6,7.6-11.3,8.2c-6,0.7-10.7-1.7-14.2-6.4
	c-4.8-6.3-5-15-0.5-21.4c5.4-7.9,15.3-11.5,24.5-8.8c5.8,1.6,9.8,5.6,14.8,11.6c0.8-24.2,9.2-46.1,4.5-68.7
	c-5.8-28.2-36.1-44.4-61.8-34c-8.4,3.4-9,6.3-2.7,13c7.2,7.6,17.1,8.9,24.4,3.6c4.8-3.5,4.1-9,5.4-14.3c5.7,8.5,3.1,14.2-10.1,22.9
	c7.3,2.8,13.1,6.8,15.4,14.6c1.8,6.2,0.8,11.9-2,17.4C56.8,197.5,39.2,203,23.7,196c-24.2-11.1-30.2-43.5-11.6-63.6
	c4-4,6.4-9.3,6.8-14.9c2.1-21.9,27.6-36,49.9-28.2c4.9,1.7,9.3,4.4,15.6,8.6C75.7,83.1,64.7,73,54.7,62
	c27.2,17.7,57.7,53.3,48.7,120.3c8.6-12,19.1-19.4,32.8-21s25.3,3.2,34,14c7.6,9.5,8.9,20.4,4.6,31.6c-5.1,13.4-18.1,19.4-31.1,14.4
	c-3.6-1.4-6.9-0.9-10.4-0.8c-6.7,0.2-11.4-2.2-11.8-10c3.3-0.2,2.8,2.6,4,3.9c2,2,4.9,2.8,7.6,2c3.9-0.9,1.8-3.9,1.6-6
	c-0.3-3-0.5-6,2.7-8.4c2.4,2.8-1.6,7.3,3,9.5c4.3-5.4,3.4-11.1,0.3-16.5c-4.1-7.3-11.1-9.2-19-8.7c-8.3,0.5-18.6,8.1-19.6,16.3
	c-4.3,34.2-6.4,68.3,16.5,98c9.1,11.8,20,21.6,31.2,31.2c3.6,3.2,5.6,2.9,6.1-2.1c1.9-19.5,8.1-37.8,14.5-56.1
	c4.9-13.3,0.4-28.3-11-36.7c-7.7-5.6-16.1-6.8-24.7-2.7c-7.2,3.4-11.4,9.1-11.8,17.3c-0.3,6.2,1.3,11.5,7.3,14.3s10.6,0.9,14.3-5.4
	c-0.3,8-5,11.7-12.2,10.5c-9.8-1.6-16.7-12.8-14.4-23.2c4.7-20.7,29.5-27.9,46.2-13.5c6.9,5.9,10.4,13.8,12.7,24.1
	c10-18.5,21-34.7,27.8-52.5c10.9-28.3-6.6-71.6-33-86.8c-7.8-4.5-15.7-4.2-23.2,0.8c-6.6,4.4-8.8,10.9-7.5,18.6
	c1.4,8,9.1,13.6,16.8,11.9c4.7-1,7.9-3.8,8.5-8.7c0.5-3.4,0.1-6.6-3.1-8.7c-4.5-2.9-7.3,0.4-10.5,4.2c-1-5.1,1.2-7.2,4.4-8.5
	c3.3-1.4,6.5-0.5,9.2,1.7c4.3,3.5,5.5,8.1,4.1,13.2c-1.8,6.4-6.1,10.2-12.6,11.3c-10.7,1.7-19.5-5.2-21.5-16.5s6.7-23.4,18.2-25.2
	c2.4-0.4,4.9-0.3,9.1-0.5C150.4,103,138.1,94.3,128,83c-10.4-11.7-16.2-25.1-16-40.9c3.5,8,4,17.1,9.6,25.4c2.3-5.4,2.5-10.7,5.5-15
	c8.6-12.5,26.6-12.6,33.3,0c2.9,5.5,3.1,11.2-1.4,15.9c-4.3,4.5-9.1,5.6-15.1-0.9c6,0.9,11.6,3,13.6-3.6c1.5-5.1,0.4-9.8-3.8-13.4
	c-5.2-4.3-10.9-4.7-16.8-1.6c-10.2,5.2-13.3,20-6.3,30.8c4.5,7,11.5,11.6,18,16.6c11.1,8.4,22.5,16.3,33.6,24.8
	c21,16.1,30.7,37.7,30.8,63.9c0,1.3,0.2,2.6,0.4,6.3c15.2-28.7,28.7-55.7,30.7-86.6c1.6-21.5-14.6-40.2-36.1-41.7
	c-2.3-0.2-4.6-0.1-6.8,0.1c-14.9,1.4-25.9,14.7-24.5,29.6c0.1,1.3,0.4,2.7,0.7,4c0.2,0.8,0.5,1.6,0.8,2.3
	c2.9,7.7,8.5,11.9,16.7,12.3s11-5.5,12.7-13.1c3.2,9-1.4,16-10.4,17.4c-10.7,1.6-20.5-4.3-24.5-14.9c-7.2-19.1,5.8-40.2,26.7-43.2
	c16-2.2,29,3.2,38.9,15.8c2.7,3.4,4.7,7.3,7,10.9c2.5-26-10.6-48-19-71.2c5.8,6,8.1,13.8,12.7,21.3c1.4-3.1,2.5-5.7,3.8-8.2
	c6.3-11.8,19.6-17.5,32-13.8c10.9,3.3,17.7,13.1,16.8,24.2c-0.6,8.4-6.6,15.6-14.8,17.6C269.5,56,264,53,260,47.1
	c-2.7-3.7-2.6-8.7,0.2-12.3c2.2-3.1,4.9-5,10-2.2c-5.1,1.5-8.7,3.8-7.8,9.1c0.4,3.7,3.1,6.7,6.7,7.4c5,1.2,9.8,0.7,13.5-3.5
	c4.7-5.3,5.2-11.5,2.7-17.6c-3.3-8-10.2-11.3-18.3-11.6c-14.8-0.6-27.7,15.7-23.2,29.8c6.3,19.4,10.5,39,8.8,59.5
	c-0.1,0.7,0.5,1.4,0.9,2.7c5.8-7.8,11.1-15.4,18.2-21.3c14.3-11.7,31.5-15.8,49.3-18.1c20.7-2.7,35.2-19.2,33.7-38.4
	c-1.5-18.3-20-29.9-35.3-22.1c-7.1,3.6-10.5,9.2-9.7,17.3c0.8,7.2,5.9,9.2,12.7,9.4c-5.1,4.3-10.9,2.9-14.7-2.8
	c-5.6-8.5-3-20.6,6.1-26.6c3.2-2.1,6.8-3.4,10.2-5.1L337,0.5z"/>
<path class="st0" d="M222.2,251.8c4,1.1,8,1.8,11.6,3.3c10.6,4.1,17,12,18,23.2c0.9,10.6-4.1,18.4-13.7,23c-4.4,2.1-4.1,4.5-1.3,7.5
	c4.5,5,10.1,7.5,16.8,7c16.7-1.4,29.1-17.5,26.5-34.1C275.9,255.7,247.7,241,222.2,251.8z"/>
<path class="st0" d="M39.8,158.7c-0.3-4.5,3.4-4.5,4.2-7.2c-8.4-1.5-15.5-5.2-20.2-12.6c-2.8-4.4-4.9-2.6-7.4,0.5
	c-9.9,12.5-8.8,33,2.4,44.3c11.5,11.6,31,10.6,39.4-2c4.3-6.5,4.5-15.5,0.2-20.7C53.3,155,47.1,153.8,39.8,158.7z"/>
<path class="st0" d="M97.9,147.7c-0.3-5.6-0.2-11.4-1.1-17c-3.2-20.4-14.7-33.4-32.4-37.4c-16.4-3.6-32.9,4.5-38.3,18.8
	c-0.9,2.3-2.5,4.9-0.9,7c2,2.6,4.4-0.1,6.6-0.9c7.3-2.5,14.6-4,22.4-2.8C74,118.8,88,129.5,97.9,147.7L97.9,147.7z"/>
<path class="st0" d="M105.3,188.5c4.2-2.1,7.5-4.3,11-5.4c9.3-3,17.9-1.2,25,5.6c5.8,5.6,7.4,12.6,5.3,20.3
	c-2.3,8.3-0.8,10.1,7.9,8.8c4.6-0.7,8.8-3.3,11.5-7.1c9-11.8,6.2-28.8-6.1-37.7C142.1,160.4,118.7,166.7,105.3,188.5L105.3,188.5z"
	/>
<path class="st0" d="M396.4,229.5c0.2,0.8,0.5,1.5,0.8,2.2c12.6,19.6,5.2,34.9-17.7,35.8c-4.2,0.2-4.4,2.1-4,5.2
	c1,7.1,7.8,13.1,16,14.1c13.9,1.8,25.8-7.2,28.2-21.3C422.4,250,411.3,232.6,396.4,229.5L396.4,229.5z"/>
</svg>
