<?xml version="1.0" encoding="utf-8"?>
<!-- Generator: Adobe Illustrator 21.0.0, SVG Export Plug-In . SVG Version: 6.00 Build 0)  -->
<svg version="1.1" id="Layer_1" xmlns="http://www.w3.org/2000/svg" xmlns:xlink="http://www.w3.org/1999/xlink" x="0px" y="0px"
	 viewBox="0 0 1190.6 841.9" style="enable-background:new 0 0 1190.6 841.9;" xml:space="preserve">
<style type="text/css">
	.st0{fill:none;stroke:#000000;stroke-miterlimit:10;}
</style>
<path class="st0" d="M511.8,419.1c0,0.5,0,1,0,1.5c0,7-0.6,13.9-1,20.8c-0.3,4.2-0.3,8.5-0.2,12.7c0.3,9.4,1.5,18.7,2.5,28
	c0.7,6.1,1.1,12.2,1.5,18.4c0.7,10.3,1.2,20.7,1.9,31c0.3,3.9,1,7.8,1.7,11.6c0.2,1.1,0.6,2.1,1,3.2c1,2.5,2.9,4,5.6,4.6
	c3.2,0.7,6.5,1.5,9.7,2.3c6.9,1.8,13.3,4.8,19.1,8.8c3.7,2.5,7.2,5.1,10.8,7.7c4.7,3.4,9.3,6.7,13.9,10.1
	c9.4,6.9,18.3,14.5,26.7,22.7c1.2,1.2,2.3,2.5,3.4,3.8c5.3,6.3,11.9,10.2,20,11.5c5.5,0.9,11,0.5,16.5-0.7
	c6.9-1.5,13.4-4.1,19.8-7.3c8.1-4,15.8-8.8,23.3-14c3-2,5.9-4.2,8.9-6.2c10-6.7,18.2-15.2,25.4-24.8c7.4-10,13.3-20.8,18.8-32
	c4.7-9.6,7.8-19.8,10.4-30.2c1.6-6.6,3.5-13.2,5.4-19.8c1.2-4.3,2.9-8.4,5-12.3c1.8-3.4,3.9-6.6,6.7-9.2c0.8-0.7,1.7-1.4,2.7-2.2
	c0.5,0.6,0.9,1,1.2,1.5c1.7,3,2.7,6.3,3.1,9.7c0.4,3.2,0.6,6.4,0.7,9.6c0.1,1.8,0,3.6,0,5.4c0,6.4,0.1,12.9-0.1,19.3
	c-0.3,6.5-0.8,13.1-1.4,19.6c-0.8,7.3-1.8,14.6-2.8,21.9c-0.7,5-1.6,9.9-2.4,14.9c-1.4,7.8-2.7,15.7-4.2,23.5
	c-1.6,8-4.1,15.8-7.8,23.1c-0.4,0.7-0.8,1.4-1.1,2.1c-0.5,1.1-1.2,1.7-2.3,2.2c-10.2,4.6-19.7,10.5-29.1,16.5
	c-12.8,8.1-25,16.9-37.2,25.9c-2.4,1.8-4.9,3.1-7.7,4c-6.8,2.3-13.5,4.6-20.3,7c-2.6,0.9-5.2,1.2-8,1.1c-8-0.3-16.1-0.4-24.1-0.8
	c-18.3-0.9-36.2-3.8-53.5-10.3c-7.4-2.7-14.5-5.9-21.5-9.6c-0.5-0.3-1.1-0.5-1.6-0.9c-12.9-8.2-26-16.2-38.5-25
	c-5.8-4.1-11.1-8.7-16.4-13.4c-8.5-7.6-16.4-15.8-23.7-24.5c-1.6-1.9-2.8-3.9-3.9-6.1c-3-6.4-4.8-13.2-6-20.2
	c-1.8-10.9-2.1-21.8-1.4-32.8c0.6-9.2,1.9-18.2,3.7-27.2c1.6-8.2,4.5-15.8,8.3-23.2c4.3-8.3,9.3-16,14.7-23.6
	c7.1-10,14.9-19.6,22.5-29.2c0.2-0.3,0.4-0.7,0.7-1C511.4,418.9,511.6,419,511.8,419.1z"/>
<path class="st0" d="M359.6,521.8c2.9-2.5,5.8-4.2,8.7-5.7c9.5-5,19.6-7.8,30.4-7.5c5.4,0.1,10.6,1.1,15.6,3.1
	c6.3,2.5,11.5,6.6,15.7,11.9c2.7,3.4,4.8,7.2,6.7,11.1c2.6,5.5,4.6,11.2,6.6,16.8c2.1,5.9,4.2,11.7,6.6,17.5
	c3.1,7.6,7.4,14.5,12.7,20.8c19.1,22.7,41.5,41.6,66.7,57.1c12.4,7.6,25.2,14.3,38.8,19.5c11.9,4.5,24.1,7.7,36.7,9.5
	c8.9,1.3,17.8,2.1,26.7,2.4c3.8,0.2,7.6,0.4,11.4,0.5c0.4,0.7-0.1,1-0.3,1.4c-0.9,1.1-1.9,2.1-2.6,3.3c-1.4,2.5-3.4,4.4-5.5,6.3
	c-5.6,5.1-11.1,10.3-16.7,15.3c-4.7,4.3-9.6,8.3-14.8,11.9c-3.3,2.3-6.8,4.4-10.4,6.1c-9.4,4.6-19.2,5.5-29.4,3
	c-6.6-1.7-12.8-4.2-18.8-7.2c-5.3-2.7-10.5-5.6-15.7-8.3c-4.8-2.6-9.6-5.2-14.4-7.7c-9.3-4.9-19.2-8.2-29.5-10.3
	c-8.6-1.7-17.1-3.5-25.7-5.5c-5.4-1.2-10.6-3-15.7-5.4c-10-4.6-17.3-11.9-22.3-21.6c-3.7-7.1-5.9-14.7-7.3-22.6
	c-1.2-6.7-1.9-13.5-2.5-20.4c-0.7-8.1-1.4-16.2-2.4-24.3c-1-8.1-2.7-16.1-5.6-23.7c-4.9-13.1-12.8-24.1-23.4-33.2
	c-5.4-4.7-11.3-8.8-17.4-12.5C361.5,523.1,360.7,522.6,359.6,521.8z"/>
<path class="st0" d="M695,334.5c-1.2-0.3-2.4-0.4-3.5-0.8c-5.5-1.9-11.1-2.8-16.8-3.9c-7.8-1.5-15.7-2.8-23.6-3.6
	c-19.1-2.1-37.6,0.1-55.4,7.5c-24.4,10.1-47.2,23.1-67.7,39.9c-10.7,8.8-20.5,18.5-29.4,29c-9.3,11-18.3,22.3-26.2,34.3
	c-8.1,12.4-15,25.5-19.8,39.6c-3.5,10-5.9,20.3-7.1,30.8c-0.5,4.6-0.9,9.2-1.3,13.8c-0.6,0.2-0.8-0.3-1.1-0.7
	c-0.9-1.2-1.7-2.5-2.6-3.7c-3.5-4.6-7.5-8.6-12.4-11.9c-0.9-0.6-1.8-1.2-2.4-2.2c-5.7-9.4-10.9-19.1-14.5-29.5
	c-2.4-6.8-4.1-13.7-4.5-20.9c-0.6-9.1,1-17.8,4.9-26.1c3.3-7,7.8-13.1,13.1-18.7c3.7-3.9,7.7-7.4,11.9-10.7
	c4.8-3.8,9.6-7.7,13.9-12.1c5-5.2,8.5-11.2,10.4-18.2c0.9-3.2,1.8-6.4,2.7-9.6c0.5-1.5,0.9-3.1,1.5-4.6c3.4-9.2,6.8-18.3,10.2-27.4
	c1.5-4,3.3-7.8,5.4-11.5c1.7-2.9,3.6-5.5,6-8c4.5-4.7,10.1-7.2,16.4-8.3c0.7-0.1,1.4,0,2.1,0.1c12.7,2.4,25.4,2.7,38.2,1.7
	c9.9-0.8,19.6-2.4,29.2-4.5c1-0.2,2-0.4,3-0.5c6.7-0.3,13.5-0.9,20.1-1.8c4.6-0.7,9.1-1.6,13.5-3c4.6-1.5,9-3.5,12.5-7
	c0.6-0.6,1.3-0.9,2.1-1c3.8-0.4,7.6-0.9,11.4-1.2c2.1-0.2,4,0.2,5.7,1.5c0.8,0.6,1.7,1.1,2.6,1.6c8.1,4.8,15.6,10.3,22.8,16.4
	c1.1,1,2.2,2.1,3.2,3.2c4.7,5.7,9.3,11.4,14,17c3.6,4.4,7.2,8.7,10.7,13.1c0.3,0.4,0.6,0.8,0.9,1.2C695.1,334.1,695,334.3,695,334.5
	z"/>
<path class="st0" d="M729.8,498c0.1-1.1,0.1-1.9,0.2-2.7c1.3-8.3,2.6-16.5,3.8-24.8c0.9-6.2,1.5-12.4,1.3-18.7
	c-0.1-4.6-0.6-9.2-1.8-13.7c-2.6-9.6-8-17.3-16-23.1c-5.8-4.2-12.2-7.1-18.9-9.2c-10.9-3.5-22-5.6-33.4-6.3
	c-11.6-0.7-22.9,0.3-34.1,3.3c-13.5,3.6-25.5,10-35.5,19.7c-11,10.6-17.8,23.5-21.4,38.2c-2.4,9.7-3.1,19.7-2.7,29.7
	c0.1,2.2,0.3,4.4,0.2,6.8c-0.8,0-1.4,0-1.9,0c-5.3-0.4-10.6-1.4-15.6-3.2c-14.1-4.8-22.9-14.5-26.6-28.9c-1.7-6.8-2.1-13.7-1.9-20.7
	c0.3-8.7,1.8-17.2,3.9-25.6c2-7.7,4.5-15.2,7-22.8c2.6-8,7.4-14,14.7-18c4.8-2.6,9.5-5.3,14.3-7.8c4-2,8.2-3.2,12.5-4.4
	c5.4-1.6,10.8-3.1,16.2-4.7c5.6-1.7,10.8-4.3,15.8-7.5c2.1-1.4,4.2-2.8,6.3-4.1c4.9-3.2,10.3-5,16-6c7.2-1.2,14.4-1.4,21.7-1.3
	c8.2,0,16.3,0.5,24.4,1.4c2.2,0.2,4.4,0.7,6.5,1.3c3.6,1,7.2,2.1,10.9,2.5c2.4,0.3,4.8,0.4,7.2,0.2c1.6-0.1,3.2,0,4.7,0.5
	c4.4,1.4,4.4,1.4,7.1,5c14.9,20.8,28,42.8,39.9,65.5c0.6,1.2,1,2.4,1.2,3.7c1.6,12.3,0.7,24.5-2.4,36.5c-0.3,1.2-0.7,2.3-1.3,3.4
	c-2.6,4.7-4.7,9.6-6.4,14.6c-0.6,1.6-1.3,3.1-2.3,4.6c-3.7,5.6-8,10.6-12.4,15.6C730.7,497.3,730.4,497.5,729.8,498z"/>
<path class="st0" d="M773.9,603.7c-0.1-1.5,0.5-2.5,0.8-3.5c2.4-7.6,4.9-15.1,7.2-22.7c3.2-10.8,5.5-21.9,6.8-33.1
	c0.5-3.8,0.7-7.6,1-11.4c0.5-7,1.8-14,3.1-20.9c1.2-6.6,2.5-13.3,3.1-20c0.8-8.7,0.7-17.3-2.1-25.7c-1.6-4.8-3.7-9.4-6.4-13.6
	c-6.1-9.3-11.1-19.1-16.1-29c-11.3-22.7-23.9-44.8-38-65.9c-10.3-15.4-21.5-30.2-33.9-43.9c-8.6-9.5-17.7-18.4-27.7-26.5
	c-0.5-0.4-1-0.9-1.7-1.6c1.1-0.4,1.8-0.2,2.5-0.1c5.7,0.8,11.4,1.2,17.2,0.9c5.5-0.3,11-1.1,16.5-2.1c2.5-0.4,4.9-1,7.4-1.5
	c1.9-0.4,3.7-0.7,5.7-0.6c1,0,2.1,0,2.9-0.4c2.1-1.1,4.4-1.4,6.7-1.8c5.3-0.8,10.6-1.2,15.9-0.9c8.1,0.4,15.3,3,21.8,7.8
	c5.3,3.9,9.7,8.8,13.3,14.3c4.8,7.4,8.4,15.4,11.4,23.6c3.9,10.7,6.8,21.7,9.1,32.8c2.5,12.2,5,24.4,7.2,36.7
	c1.8,9.9,5.3,19,10.8,27.3c2.5,3.8,5.1,7.5,7.7,11.2c2.8,4,5.5,7.9,7.6,12.3c2.8,5.9,2.6,5,1.9,11c-1.2,10.3-2.3,20.6-3.4,30.9
	c-0.8,7.5-1.3,15-1.3,22.6c0,1.2-0.3,2.4-0.9,3.5c-0.8,1.4-1.4,2.9-2.2,4.3c-4.7,8.9-7.5,18.4-10.1,28.1c-1.8,6.8-3.6,13.6-6.1,20.2
	c-1.9,5-4.1,9.8-7.1,14.3c-2.6,4-5.7,7.6-9.5,10.4c-4.3,3.2-8.6,6.3-13,9.3C779.8,601.7,777,602.6,773.9,603.7z"/>
<path class="st0" d="M532.5,497.5c1.5,0.9,2.4,1.5,3.3,2.1c15.6,10.4,31.9,19.5,49.1,27.2c3.9,1.7,7.8,3.3,11.7,5
	c2.3,1,4.7,1.9,7,2.9c5.6,2.5,11.6,4.1,17.6,5.1c3.1,0.5,6.2,1,9.2,1.5c5.2,0.8,10.4,1.2,15.6,1c5.6-0.3,11-1.2,16.2-3.3
	c8.3-3.3,14.5-9,18.7-16.8c2.8-5.2,4.5-10.8,5.3-16.6c1.4-9.6,1.5-19.3,1.1-28.9c-0.2-4.3-0.9-8.6-2.3-12.7c-1-3-2.3-5.8-4.2-8.3
	c-3.7-4.9-8.6-7.7-14.7-8.7c-3.6-0.6-7.2-0.4-10.8,0.1c-5.7,0.9-11.3,1.9-16.8,3.6c-3.1,0.9-6.1,2.1-9,3.6
	c-9.6,4.9-15.2,12.7-16.9,23.2c-1.6,9.9-1,19.7,1.9,29.3c2.4,8.1,6.8,15,13.7,20.1c0.2,0.2,0.4,0.4,0.6,0.6
	c-0.1,0.7-0.6,0.6-0.9,0.5c-1.7-0.2-3.4-0.3-5.1-0.8c-5.2-1.5-10.5-2.8-15.6-4.8c-7.5-3-13.1-8.2-15.4-16.3
	c-3.5-12.2-5.7-24.7-6.3-37.4c-0.1-1.1,0-2.2,0.3-3.3c2.3-10.9,6.9-20.8,14.1-29.3c0.9-1,1.8-1.9,3-2.5c10.5-5.1,21-10.2,31.8-14.7
	c2.6-1.1,5.2-2.2,8-2.5c2.1-0.2,4.2-0.5,6.3-0.6c14.2-0.6,28.1,1.1,41.7,5.3c4,1.2,7.9,2.9,11.7,4.9c5.9,3.2,10.1,7.9,12.8,14
	c2.3,5.1,3.6,10.5,4.1,16c0.5,5.1,0.7,10.2,1.1,15.4c0.2,2.4-0.3,4.8-0.6,7.2c-1.5,9.2-3,18.5-3.8,27.8c-0.5,5.8-0.6,11.7-0.3,17.5
	c0.2,4.1,2.7,6.4,6.8,6.4c0.4,0,0.8-0.1,1.1-0.1c0.6,0.6,0.1,1.2-0.1,1.7c-1,2.5-2,5.1-3.2,7.5c-0.8,1.6-1.8,3.2-3,4.5
	c-3,3.3-6,6.5-9.3,9.5c-14.1,13-29.2,24.7-45.3,35.1c-3.5,2.3-7.2,4.4-10.9,6.4c-2,1.1-4.2,2-6.3,2.9c-2.4,1.1-4.8,1.2-7.4,0.7
	c-6.2-1.1-12-3.3-17.7-6c-5.9-2.8-11.5-6.2-17-9.8c-4.1-2.7-8.1-5.7-12-8.6c-10.2-7.6-20.5-15-30.8-22.3c-3.7-2.6-7.6-4.9-11.6-7.1
	c-3.9-2.2-6.7-5.5-8.6-9.4c-1.4-2.7-2.2-5.6-2.8-8.6c-1.6-8.2-3.2-16.4-4.7-24.6C532.8,500.6,532.7,499.4,532.5,497.5z"/>
<path class="st0" d="M640,728.4c-0.7-3.2-0.5-5.9-0.1-8.6c1.5-9,4.5-17.5,8.5-25.7c0.4-0.8,0.9-1.6,1.4-2.4c2.2-3.6,5.2-6.1,9.2-7.4
	c1.9-0.6,3.8-1.3,5.7-1.9c7.1-2.3,13.7-5.8,19.8-10.2c9.2-6.7,18.4-13.4,27.6-20c9.9-7.1,20.1-13.7,30.6-20
	c8.6-5.2,17.6-9.7,27.1-13.2c5.1-1.9,10.1-4,15.1-6.1c5.3-2.3,10.3-5,15-8.4c5.3-3.8,9.8-8.3,13.6-13.6
	c12.9-18.3,23.4-37.8,30.4-59.1c0.1-0.4,0.2-0.8,0.4-1.2c0.7-1.7,2.6-2.2,3.9-1c5.7,5.6,11.1,11.4,15.4,18.1
	c3.7,5.8,5.6,12.2,5.8,19.1c0.1,1.5,0.1,3,0.1,4.5c-0.2,6.8-0.3,13.7-1.2,20.5c-2.2,16.4-9,30.6-20.6,42.4
	c-7.7,7.9-16.8,14.1-26.6,19.1c-11.3,5.7-23.2,9.8-35.4,12.7c-3.3,0.8-6.7,1.5-10,2.3c-12.3,3-22.3,9.5-29.7,19.8
	c-2.2,3.1-4.2,6.4-6.3,9.6c-2.2,3.4-4.3,6.8-6.6,10.1c-5.9,8.4-13.9,14.2-23.6,17.6c-3.5,1.3-7.1,1.5-10.7,0.6
	c-3.2-0.8-6.3-1.9-9.5-3c-3.7-1.3-7.3-2.8-11-4.1c-3.3-1.2-6.8-1.9-10.3-2.1c-7.4-0.6-14.2,1.4-20.3,5.5c-1.9,1.3-3.6,2.8-5.5,4.3
	C641.4,727.3,640.9,727.7,640,728.4z"/>
<path class="st0" d="M462.7,317.9c-3.8,8-7.1,16.1-13.1,22.8c-0.5-0.3-1-0.5-1.4-0.8c-9.7-6.8-20.1-12.2-30.9-17
	c-10.8-4.7-21.7-9.2-32.5-13.8c-7.4-3.2-14.7-6.5-21.8-10.3c-5.7-3.1-11.1-6.5-16.3-10.3c-10.4-7.7-17.6-17.9-22.3-29.8
	c-3.5-8.7-5.8-17.8-7.3-27c-2.6-16.3-2.9-32.7-2-49.1c0.4-7.3,0.9-14.7,1.5-22c0.6-6.8,1.4-13.6,2.1-20.4c0.5-4.3,0.9-8.6,1.4-12.9
	c0.1-0.6,0.2-1.1,0.2-1.7c1,0.2,0.9,0.9,1,1.5c2.8,11.9,6.4,23.5,10.9,34.8c8,20.3,18.3,39.4,30.8,57.3c7.3,10.5,15.7,19.9,25,28.6
	c8.8,8.1,18.1,15.7,27.5,23.2c9.4,7.6,18.8,15.2,27.5,23.6c6.4,6.2,12.4,12.7,17.6,19.9c0.6,0.8,1.2,1.6,1.7,2.5
	C462.3,317.1,462.4,317.4,462.7,317.9z"/>
<path class="st0" d="M870.7,338.5c-0.7,1-1.2,1.6-1.7,2.2c-5.1,6.6-7.6,14.1-7.7,22.4c-0.1,7.6,1.6,14.8,4.1,21.8
	c2.8,8.2,6.6,16,10.6,23.7c4.5,8.9,9.2,17.7,13.6,26.6c3.5,7,6.4,14.3,8.5,21.9c1,3.9,1.8,7.9,1.9,11.9c0.3,9.3-2.7,17.4-9.1,24.2
	c-2.7,2.8-5.6,5.2-8.8,7.3c-4.6,3.1-9.5,5.6-14.6,7.8c-7,3-14.3,5.5-21.7,7.5c-0.5,0.1-1,0.2-1.6,0.3c-0.1-0.9-0.3-1.7-0.3-2.4
	c-0.3-5.8,0-11.7,0.5-17.5c0.4-5.4,0.9-10.8,1.5-16.2c0.7-6.4,1.4-12.8,2.2-19.2c0.5-4.6,1-9.2,0.9-13.8c-0.2-9-2.3-17.6-6.6-25.5
	c-2-3.6-4.3-7-6.6-10.5c-2.2-3.3-4.5-6.4-6.8-9.6c-4.9-7.1-8.5-14.8-10.3-23.3c-1.8-8.3-3.6-16.5-5.4-24.8
	c-2.2-10.1-4.2-20.3-7.2-30.2c-1.3-4.3-2.9-8.6-4.4-12.8c-0.2-0.7-0.5-1.3-0.8-2.1c0.5-0.1,0.9-0.2,1.2-0.2
	c23.3,2.8,44.2,11.7,63,25.6C866.9,335.1,868.6,336.8,870.7,338.5z"/>
<path class="st0" d="M591.1,206.7c0.4,0.3,0.8,0.6,1.2,0.9c3.8,3.4,7.9,6.5,12.1,9.5c8.6,6,17.4,11.6,26.6,16.7
	c3.2,1.7,6.5,3.1,10,4c8.2,2.1,16.1,5.2,23.9,8.4c9.9,4.2,19.6,8.9,28.8,14.5c3.5,2.2,6.8,4.6,10.2,6.9c0.4,0.3,0.7,0.6,1.1,1
	c-0.7,0.7-1.5,0.4-2.1,0.3c-3.9-0.4-7.8-0.7-11.7-1.2c-8.3-1-16.6-1.6-25-1.7c-8.9-0.1-17.7,0-26.6,0.7c-11.2,0.9-22.4,2.2-33.5,4.4
	c-1.8,0.3-3.5,0.9-5.2,1.5c-12.1,4.4-24.4,8.1-37.1,10.7c-14.1,2.8-28.3,4.1-42.6,3.3c-8-0.5-15.8-1.8-23.4-4.3
	c-1.6-0.5-3.2-1.2-4.5-2.4c-2-1.8-2.5-3.9-1.5-6.3c0.6-1.5,1.4-2.9,2.4-4.2c1.8-2.3,3.7-4.5,5.8-6.5c4-4,8.5-7.4,13.1-10.7
	c9.5-6.8,19.4-12.9,29.6-18.7c10.4-5.9,21-11.6,31.4-17.4c5.2-2.9,10.3-5.8,15.5-8.8C590.1,207.1,590.6,206.9,591.1,206.7z"/>
<path class="st0" d="M468.1,305.2c-0.3-0.3-0.7-0.5-0.9-0.8c-9.7-12.6-21.4-23.2-33.6-33.3c-8.5-7-17-13.8-25.5-20.8
	c-7.2-6-14.2-12.2-20.7-19c-7.4-7.7-13.8-16.3-19.6-25.2c-15-22.9-26.3-47.5-33.6-73.9c-2.1-7.7-3.7-15.4-4.9-23.3c0-0.3,0-0.6,0-1
	c1.1,0.4,1.5,1.5,2.1,2.2c4.5,6.1,8.8,12.2,13.4,18.3c7.5,10,15.4,19.7,23.8,28.9c7.1,7.9,15,14.9,23.8,20.9
	c7.5,5.1,15.2,9.9,22.8,14.8c3.4,2.2,6.8,4.4,10.2,6.5c13,8.2,24.1,18.4,34,30.1c3.7,4.3,7.2,8.7,10.3,13.4
	c2.6,4.1,4.9,8.3,6.7,12.8c3.5,9.2,3.7,18.5,0.7,27.8c-2.3,7.1-5.2,13.9-8.2,20.8C468.6,304.7,468.4,304.9,468.1,305.2z"/>
<path class="st0" d="M397.4,492c-0.9,0-1.4,0.1-1.8,0c-2.5-0.6-5.1-1.1-7.6-1.9c-9-3-15.7-8.8-20.1-17.2c-3-5.7-4.9-11.9-6.1-18.3
	c-1.3-6.4-2.1-12.9-2.5-19.5c-0.6-11.4-1.2-22.7-1.8-34.1c-0.6-10.2-1.4-20.3-3.6-30.2c-1.3-5.7-3-11.3-5.6-16.5
	c-0.2-0.4-0.4-0.9-0.6-1.3c0.3-1,1.2-1.1,1.9-1.4c6.1-2.6,12.2-5.2,18.3-7.9c4.1-1.8,8.1-3.6,12.1-5.4c5.1-2.4,10.4-4.4,16-5.3
	c3.7-0.6,7.4-0.6,11.1-0.3c0.8,0.1,1.6,0.3,2.3,0.6c9.7,4.3,19.2,8.9,28.1,14.6c1,0.7,1.9,1.5,3,2c2,1.1,2.7,2.9,2.9,5
	c0.3,2.7-0.1,5.2-1.1,7.7c-1.4,3.5-3.4,6.6-5.7,9.6c-3.4,4.4-7.3,8.4-11.2,12.3c-3.5,3.5-7.1,6.9-10.5,10.4
	c-5.5,5.7-10.2,11.9-14.3,18.7c-5,8.3-8.2,17.3-9.1,27c-0.5,4.9-0.4,9.9,0.1,14.8c0.8,9.2,2.7,18.3,4.2,27.4
	C396.4,485.7,396.9,488.7,397.4,492z"/>
<path class="st0" d="M658.4,520.6c-6.1-1.6-12.2-3-18.1-5c-1.2-0.4-2.4-1-3.6-1.5c-3.8-1.7-6.3-4.6-7.8-8.4c-1-2.6-1.7-5.4-2.1-8.2
	c-0.7-4.2-1.3-8.4-1.1-12.6c0.1-1.9,0.3-3.8,0.7-5.7c0.9-4.4,3.4-7.7,7.2-10c2.2-1.3,4.5-2.4,6.9-3c3.5-0.9,7-1.7,10.6-2.3
	c3.5-0.6,7-0.8,10.5-1.2c0.3,0,0.6,0.1,0.9,0.1c1.5,1.7,2.4,3.7,3.3,5.7c1.8,4.1,2.8,8.4,3.4,12.8c1.1,7.9,0.8,15.7-1.1,23.4
	c-0.6,2.5-1.5,5-2.5,7.4C664,515.6,661.6,518.4,658.4,520.6z"/>
<path class="st0" d="M928.2,468.1c-0.2-5.9-1.1-11.8-2.8-18.2c-2.4-8.9-5.8-17.8-10.5-27.2c-3.1-6.2-6.3-12.4-9.3-18.3
	c-1.5-2.9-2.9-5.7-4.4-8.6c-3.8-7.5-6.8-13.8-9-20.1c-1.7-5-2.5-8.9-2.5-12.2c0-2.6,0.7-4,1.8-5.4c0.4-0.5,0.8-1,1.2-1.6l0.6-0.8
	c9.1-12,7.3-29-4.2-38.7c-0.5-0.5-1.1-0.9-1.6-1.4c-1.5-1.3-3.4-3-5.7-4.7c-23.2-17.2-49-27.7-76.5-31c-1.2-0.1-2.3-0.2-3.5-0.2
	c-0.9,0-1.8,0-2.6,0.1c-4.7-6-10-11.2-15.8-15.4c-11.1-8.2-23.6-12.6-37.3-13.3c-1.6-0.1-3.3-0.1-4.9-0.1c-4.4,0-9,0.3-13.5,0.9
	c-0.9-1.2-1.8-2.2-2.8-3.3c-1.1-1.2-2.7-2.7-5-4.3c-0.9-0.6-1.8-1.2-2.6-1.8c-2.6-1.8-5.5-3.9-8.7-5.8c-9.5-5.9-20.2-11.3-32.7-16.5
	c-8-3.3-17.5-7.1-27.8-9.8c-1.1-0.3-2.2-0.8-3.5-1.4c-7.9-4.3-15.7-9.2-23.9-15c-3.9-2.7-6.9-5.1-9.5-7.4c-1.4-1.2-2.6-2.1-3.2-2.6
	c-5-3.7-10.9-5.6-16.9-5.6c-4.4,0-8.8,1-12.9,3.1l-0.2,0.1c-0.8,0.4-1.5,0.8-2.2,1.2c-1.8,1-3.6,2-5.3,3c-3.3,1.9-6.7,3.8-10,5.6
	c-3.9,2.2-7.8,4.3-11.7,6.5c-6.5,3.6-13.2,7.3-19.9,11c-12.2,6.9-22.7,13.6-32.2,20.3c-0.5,0.4-1,0.7-1.5,1.1
	c-0.6-0.9-1.1-1.8-1.7-2.8c-4.1-6.3-8.6-11.8-12.5-16.3c-12.5-14.7-25.8-26.4-40.5-35.7c-3.2-2-6.4-4.1-9.9-6.4
	c-2.2-1.4-4.5-2.9-6.7-4.3c-5.4-3.5-10.5-6.8-15.6-10.2c-6.6-4.5-12.7-9.9-18.7-16.4c-7.6-8.3-15-17.4-22.1-26.9
	c-2.6-3.5-5.2-7-7.9-10.8c-1.6-2.2-3.2-4.4-4.8-6.7c-3.8-5.9-8.9-10.1-15.2-12.6c-3.3-1.3-6.7-1.9-10.2-1.9c-5.7,0-11.3,1.7-16,5
	c-6.8,4.6-11.1,11.9-12.1,20c-4.9,4.4-8.1,10.4-9,17l0,0.3c-0.1,0.8-0.2,1.5-0.3,2.3l-0.3,2.8c-0.4,3.4-0.8,6.9-1.1,10.3
	c-0.2,1.7-0.4,3.5-0.6,5.2c-0.6,5.1-1.1,10.4-1.6,15.8c-0.6,6.6-1.1,13.9-1.5,22.8c-1.1,20.2-0.4,38.3,2.3,55.1
	c1.9,11.6,4.9,22.7,9,33.1c6.9,17.4,17.6,31.6,31.7,42.1c5.2,3.9,10.9,7.5,16.8,10.9c-2.6,1.1-5.1,2.2-7.7,3.3
	c-13.1,5-17.3,15.7-18.5,20.2c-1.7,6.3-1.3,13,1.4,18.9l0.1,0.1c0.2,0.5,0.6,1.3,1,2.3c1.4,2.8,2.5,6.2,3.4,10.2
	c1.8,8.2,2.5,17.2,3,25.6c0.3,5.6,0.6,11.2,0.9,16.8c0.3,5.8,0.6,11.5,0.9,17.3c0.4,7.7,1.4,15.6,3,23.5c2,9.9,4.9,18.4,8.9,25.9
	c1.7,3.1,3.5,6.1,5.6,8.8c-2.2,1.4-4.5,3.1-7,5.2c-6.9,5.8-10.6,14.5-10.1,23.5c0.6,9,5.3,17.2,12.9,22.1l0.9,0.6
	c1,0.6,1.8,1.2,2.7,1.7c5.3,3.2,9.7,6.3,13.5,9.6c7.2,6.3,12.3,13.4,15.4,21.7c1.9,5.1,3.2,10.8,4,17.2c0.9,7.2,1.5,14.5,2.2,22.2
	l0.1,1.2c0.6,7.2,1.4,15,2.8,23c2.1,11.5,5.4,21.4,10,30.5c8,15.5,20,27.1,35.6,34.4c6.9,3.2,14.1,5.7,21.4,7.3
	c8.4,1.9,17.2,3.8,26.3,5.6c8.1,1.6,15.3,4.1,22.1,7.7c2.9,1.5,5.8,3.1,8.9,4.7c1.7,0.9,3.5,1.9,5.2,2.8c1.4,0.8,2.9,1.5,4.3,2.3
	c3.9,2.1,7.8,4.2,12,6.3c8.3,4.2,16.4,7.3,24.7,9.4c6,1.5,12,2.3,17.9,2.3c10.6,0,21-2.4,30.8-7.2c3.6-1.7,7.1-3.7,10.6-6
	c3.4,5.7,8.6,10.1,15,12.3c3,1.1,6.2,1.6,9.3,1.6c6.5,0,12.9-2.2,18-6.5l0.9-0.8c0.2-0.2,0.4-0.4,0.6-0.5c0.7-0.5,1.4-1.1,2-1.7
	c0.6-0.5,1.4-1.1,1.7-1.3c1.1-0.8,1.6-0.8,2-0.8c0.1,0,0.2,0,0.3,0c1.1,0.1,2.2,0.3,3.1,0.6c1.6,0.6,3.2,1.2,4.9,1.8
	c2,0.7,4,1.5,6.2,2.3l0.3,0.1c3.4,1.2,7.2,2.5,11.5,3.6c3.7,1,7.5,1.4,11.4,1.4c5.4,0,10.7-0.9,15.9-2.8c15.5-5.5,28-15,37.1-28
	c1.9-2.7,3.7-5.4,5.2-7.8c0.7-1,1.3-2.1,2-3.1c0.7-1,1.3-2,1.9-3c1.3-2.1,2.6-4,3.7-5.6c3.3-4.7,7.4-7.4,13.2-8.7
	c1.5-0.4,2.9-0.7,4.4-1c1.9-0.4,3.8-0.8,5.6-1.3c15.5-3.7,29.1-8.7,41.6-15c13.5-6.9,24.6-14.9,34-24.6
	c15.7-16.1,25.3-35.8,28.4-58.4c1.1-8.2,1.3-16.1,1.5-23l0-0.6c0.1-2.3,0-4.5-0.1-6.3c-0.5-12.1-3.9-23.2-10.2-33.2
	c-0.4-0.6-0.7-1.1-1.1-1.7c4.2-2.1,8-4.4,11.6-6.8c5.2-3.5,9.5-7.2,13.4-11.3C923,500.6,928.9,485.1,928.2,468.1z"/>
</svg>
