<svg id="Layer_1" data-name="Layer 1" xmlns="http://www.w3.org/2000/svg" viewBox="0 0 1088.22 150.5">
  <title>workflow</title>
  <g>
    <rect x="0.43" y="0.43" width="226.3" height="149.13" style="fill: #ccc"/>
    <path d="M232.19,1.68V149.95H6.76V1.68H232.19m.87-.87H5.89v150H233.06V.81Z" transform="translate(-5.89 -0.81)"/>
  </g>
  <g>
    <rect x="287.45" y="0.6" width="226.3" height="149.13" style="fill: #c69c6d"/>
    <path d="M519.21,1.85V150.11H293.77V1.85H519.21m.87-.87H292.91V151H520.07V1Z" transform="translate(-5.89 -0.81)"/>
  </g>
  <g>
    <rect x="574.47" y="0.77" width="226.3" height="149.13" style="fill: #a67c52"/>
    <path d="M806.23,2V150.28H580.79V2H806.23m.87-.87H579.93v150H807.09V1.15Z" transform="translate(-5.89 -0.81)"/>
  </g>
  <g>
    <rect x="861.49" y="0.93" width="226.3" height="149.13" style="fill: #c7b299"/>
    <path d="M1093.24,2.18V150.45H867.81V2.18h225.43m.87-.87H866.94v150h227.17V1.31Z" transform="translate(-5.89 -0.81)"/>
  </g>
  <g>
    <line x1="230.58" y1="75" x2="270.58" y2="75" style="fill: none;stroke: #000;stroke-miterlimit: 10;stroke-width: 2.1259841918945312px"/>
    <polygon points="285.58 75 277.3 79.78 269.02 84.56 269.02 75 269.02 65.44 277.3 70.22 285.58 75" style="fill-rule: evenodd"/>
  </g>
  <g>
    <line x1="516.58" y1="75" x2="556.58" y2="75" style="fill: none;stroke: #000;stroke-miterlimit: 10;stroke-width: 2.1259841918945312px"/>
    <polygon points="571.58 75 563.3 79.78 555.02 84.56 555.02 75 555.02 65.44 563.3 70.22 571.58 75" style="fill-rule: evenodd"/>
  </g>
  <g>
    <line x1="804.58" y1="75" x2="844.58" y2="75" style="fill: none;stroke: #000;stroke-miterlimit: 10;stroke-width: 2.1259841918945312px"/>
    <polygon points="859.58 75 851.3 79.78 843.02 84.56 843.02 75 843.02 65.44 851.3 70.22 859.58 75" style="fill-rule: evenodd"/>
  </g>
  <g>
    <path d="M63,69.43a10.37,10.37,0,0,1-4.27.77c-4.56,0-8-2.88-8-8.19,0-5.06,3.43-8.5,8.45-8.5a8.67,8.67,0,0,1,3.84.72l-.5,1.7a7.6,7.6,0,0,0-3.26-.67c-3.79,0-6.31,2.42-6.31,6.67,0,4,2.28,6.5,6.22,6.5a8.37,8.37,0,0,0,3.41-.67Z" transform="translate(-5.89 -0.81)"/>
    <path d="M68.37,64.87,66.69,70H64.52L70,53.78h2.52L78.06,70H75.83L74.1,64.87Zm5.3-1.63-1.58-4.66c-.36-1.06-.6-2-.84-3h0c-.24,1-.5,1.94-.82,2.93L68.8,63.24Z" transform="translate(-5.89 -0.81)"/>
    <path d="M80.44,54a29.93,29.93,0,0,1,4.44-.34c3,0,5.14.7,6.55,2a7.45,7.45,0,0,1,2.28,5.81,8.56,8.56,0,0,1-2.33,6.29c-1.51,1.51-4,2.33-7.15,2.33a33.82,33.82,0,0,1-3.79-.19ZM82.52,68.3a13.17,13.17,0,0,0,2.11.12c4.46,0,6.89-2.5,6.89-6.86,0-3.82-2.14-6.24-6.55-6.24a11.87,11.87,0,0,0-2.45.22Z" transform="translate(-5.89 -0.81)"/>
    <path d="M101.22,67.41A7.4,7.4,0,0,0,105,68.47c2.14,0,3.38-1.13,3.38-2.76s-.86-2.38-3-3.22c-2.64-.94-4.27-2.3-4.27-4.58,0-2.52,2.09-4.39,5.23-4.39a7.35,7.35,0,0,1,3.58.79l-.58,1.7a6.44,6.44,0,0,0-3.07-.77c-2.21,0-3,1.32-3,2.42,0,1.51,1,2.26,3.22,3.12,2.74,1.06,4.13,2.38,4.13,4.75s-1.85,4.66-5.66,4.66a8.35,8.35,0,0,1-4.13-1Z" transform="translate(-5.89 -0.81)"/>
    <path d="M123.93,64.05c0,4.3-3,6.17-5.78,6.17-3.14,0-5.57-2.3-5.57-6,0-3.89,2.54-6.17,5.76-6.17S123.93,60.5,123.93,64.05Zm-9.22.12c0,2.54,1.46,4.46,3.53,4.46s3.53-1.9,3.53-4.51c0-2-1-4.46-3.48-4.46S114.71,62,114.71,64.17Z" transform="translate(-5.89 -0.81)"/>
    <path d="M126.8,70v-10h-1.63V58.34h1.63v-.55a5.48,5.48,0,0,1,1.34-4.06A4,4,0,0,1,131,52.65a4.89,4.89,0,0,1,1.8.34l-.29,1.63a3.15,3.15,0,0,0-1.34-.26c-1.8,0-2.26,1.58-2.26,3.36v.62h2.81v1.61h-2.81V70Z" transform="translate(-5.89 -0.81)"/>
    <path d="M136.4,55v3.34h3v1.61h-3v6.26c0,1.44.41,2.26,1.58,2.26a4.69,4.69,0,0,0,1.22-.14l.1,1.58a5.17,5.17,0,0,1-1.87.29,2.93,2.93,0,0,1-2.28-.89,4.31,4.31,0,0,1-.82-3V59.95h-1.8V58.34h1.8V55.56Z" transform="translate(-5.89 -0.81)"/>
    <path d="M142.86,58.34l1.54,5.9c.34,1.3.65,2.5.86,3.7h.07c.26-1.18.65-2.42,1-3.67l1.9-5.93H150l1.8,5.81c.43,1.39.77,2.62,1,3.79h.07a34.84,34.84,0,0,1,.89-3.77l1.66-5.83h2.09L153.83,70h-1.92l-1.78-5.54a38.71,38.71,0,0,1-1-3.82h0A34.35,34.35,0,0,1,148,64.44L146.12,70H144.2l-3.5-11.62Z" transform="translate(-5.89 -0.81)"/>
    <path d="M166,70l-.17-1.46h-.07a4.33,4.33,0,0,1-3.55,1.73,3.31,3.31,0,0,1-3.55-3.34c0-2.81,2.5-4.34,7-4.32v-.24A2.39,2.39,0,0,0,163,59.64a5.79,5.79,0,0,0-3,.86l-.48-1.39a7.21,7.21,0,0,1,3.82-1c3.55,0,4.42,2.42,4.42,4.75v4.34a16.41,16.41,0,0,0,.19,2.78ZM165.71,64c-2.3,0-4.92.36-4.92,2.62a1.87,1.87,0,0,0,2,2,2.89,2.89,0,0,0,2.81-1.94,2.2,2.2,0,0,0,.12-.67Z" transform="translate(-5.89 -0.81)"/>
    <path d="M171.15,62c0-1.37,0-2.54-.1-3.62h1.85l.07,2.28h.1a3.48,3.48,0,0,1,3.22-2.54,2.3,2.3,0,0,1,.6.07v2a3.19,3.19,0,0,0-.72-.07,3,3,0,0,0-2.83,2.71,6,6,0,0,0-.1,1V70h-2.09Z" transform="translate(-5.89 -0.81)"/>
    <path d="M179.94,64.53a3.72,3.72,0,0,0,4,4,7.64,7.64,0,0,0,3.22-.6l.36,1.51a9.41,9.41,0,0,1-3.86.72c-3.58,0-5.71-2.35-5.71-5.86s2.06-6.26,5.45-6.26c3.79,0,4.8,3.34,4.8,5.47a8.08,8.08,0,0,1-.07,1ZM186.13,63c0-1.34-.55-3.43-2.93-3.43-2.14,0-3.07,2-3.24,3.43Z" transform="translate(-5.89 -0.81)"/>
    <path d="M50.68,97.49a3.7,3.7,0,0,0,1.87.53c1.07,0,1.69-.56,1.69-1.38s-.43-1.19-1.52-1.61c-1.32-.47-2.13-1.15-2.13-2.29a2.33,2.33,0,0,1,2.61-2.2,3.67,3.67,0,0,1,1.79.4l-.29.85a3.21,3.21,0,0,0-1.54-.38c-1.1,0-1.52.66-1.52,1.21,0,.76.49,1.13,1.61,1.56,1.37.53,2.06,1.19,2.06,2.37s-.92,2.33-2.83,2.33a4.18,4.18,0,0,1-2.06-.52Z" transform="translate(-5.89 -0.81)"/>
    <path d="M62,95.81a2.84,2.84,0,0,1-2.89,3.08,2.76,2.76,0,0,1-2.78-3,2.83,2.83,0,0,1,2.88-3.08A2.75,2.75,0,0,1,62,95.81Zm-4.61.06c0,1.27.73,2.23,1.76,2.23s1.76-.95,1.76-2.25c0-1-.49-2.23-1.74-2.23S57.42,94.76,57.42,95.87Z" transform="translate(-5.89 -0.81)"/>
    <path d="M63.36,90.24h1.06v8.52H63.36Z" transform="translate(-5.89 -0.81)"/>
    <path d="M67.37,91.32a.65.65,0,0,1-1.31,0,.64.64,0,0,1,.66-.66A.63.63,0,0,1,67.37,91.32Zm-1.17,7.44V93h1.06v5.8Z" transform="translate(-5.89 -0.81)"/>
    <path d="M74,90.24v7c0,.52,0,1.1,0,1.5h-.95l0-1h0a2.15,2.15,0,0,1-2,1.14c-1.4,0-2.48-1.19-2.48-3,0-1.93,1.19-3.12,2.6-3.12a1.94,1.94,0,0,1,1.75.89h0V90.24ZM73,95.32a1.85,1.85,0,0,0,0-.44,1.55,1.55,0,0,0-1.52-1.22c-1.09,0-1.74,1-1.74,2.24S70.22,98,71.36,98a1.59,1.59,0,0,0,1.55-1.26,1.83,1.83,0,0,0,0-.46Z" transform="translate(-5.89 -0.81)"/>
    <path d="M76.19,93l.77,3c.17.65.32,1.25.43,1.85h0c.13-.59.32-1.21.52-1.83l.95-3h.89l.9,2.9c.22.7.38,1.31.52,1.89h0a17.56,17.56,0,0,1,.44-1.88L82.5,93h1l-1.87,5.8h-1L79.82,96a19.73,19.73,0,0,1-.52-1.91h0A17.18,17.18,0,0,1,78.75,96l-.94,2.76h-1L75.11,93Z" transform="translate(-5.89 -0.81)"/>
    <path d="M89.73,95.81a2.84,2.84,0,0,1-2.89,3.08,2.76,2.76,0,0,1-2.78-3,2.83,2.83,0,0,1,2.88-3.08A2.75,2.75,0,0,1,89.73,95.81Zm-4.61.06c0,1.27.73,2.23,1.76,2.23s1.76-.95,1.76-2.25c0-1-.49-2.23-1.74-2.23S85.13,94.76,85.13,95.87Z" transform="translate(-5.89 -0.81)"/>
    <path d="M91.07,94.76c0-.68,0-1.27,0-1.81h.92l0,1.14h0a1.74,1.74,0,0,1,1.61-1.27,1.12,1.12,0,0,1,.3,0v1a1.56,1.56,0,0,0-.36,0,1.48,1.48,0,0,0-1.42,1.36,3,3,0,0,0,0,.49v3.09h-1Z" transform="translate(-5.89 -0.81)"/>
    <path d="M96.08,95.62h0c.14-.2.35-.46.52-.66l1.7-2H99.6l-2.24,2.39,2.55,3.42H98.63l-2-2.78-.54.6v2.18H95V90.24h1Z" transform="translate(-5.89 -0.81)"/>
    <path d="M100.52,97.68a2.78,2.78,0,0,0,1.39.42c.77,0,1.13-.38,1.13-.86s-.3-.78-1.08-1.07c-1-.37-1.54-.95-1.54-1.64a1.79,1.79,0,0,1,2-1.7,2.91,2.91,0,0,1,1.43.36l-.26.77a2.26,2.26,0,0,0-1.19-.34c-.62,0-1,.36-1,.79s.35.7,1.1,1c1,.38,1.52.89,1.52,1.75,0,1-.79,1.74-2.17,1.74a3.32,3.32,0,0,1-1.63-.4Z" transform="translate(-5.89 -0.81)"/>
    <path d="M104.61,100.23a17.27,17.27,0,0,0,.72-2.87l1.17-.12a14.6,14.6,0,0,1-1.14,2.91Z" transform="translate(-5.89 -0.81)"/>
    <path d="M110.35,90.67h4.35v.88H111.4v2.69h3.06v.86H111.4v3.66h-1Z" transform="translate(-5.89 -0.81)"/>
    <path d="M120.6,97.18c0,.6,0,1.13,0,1.58h-.94l-.06-.95h0a2.18,2.18,0,0,1-1.92,1.08c-.91,0-2-.5-2-2.54V93h1.06v3.21c0,1.1.34,1.85,1.29,1.85a1.53,1.53,0,0,0,1.39-1,1.55,1.55,0,0,0,.1-.54V93h1.06Z" transform="translate(-5.89 -0.81)"/>
    <path d="M122.21,97.68a2.77,2.77,0,0,0,1.39.42c.77,0,1.13-.38,1.13-.86s-.3-.78-1.08-1.07c-1-.37-1.54-.95-1.54-1.64a1.79,1.79,0,0,1,2-1.7,2.9,2.9,0,0,1,1.43.36l-.26.77a2.26,2.26,0,0,0-1.19-.34c-.62,0-1,.36-1,.79s.35.7,1.1,1c1,.38,1.52.89,1.52,1.75,0,1-.79,1.74-2.17,1.74a3.31,3.31,0,0,1-1.63-.4Z" transform="translate(-5.89 -0.81)"/>
    <path d="M128.28,91.32a.65.65,0,0,1-1.31,0,.64.64,0,0,1,.66-.66A.63.63,0,0,1,128.28,91.32Zm-1.18,7.44V93h1.06v5.8Z" transform="translate(-5.89 -0.81)"/>
    <path d="M135.16,95.81a2.84,2.84,0,0,1-2.89,3.08,2.76,2.76,0,0,1-2.78-3,2.83,2.83,0,0,1,2.88-3.08A2.75,2.75,0,0,1,135.16,95.81Zm-4.61.06c0,1.27.73,2.23,1.76,2.23s1.76-.95,1.76-2.25c0-1-.49-2.23-1.74-2.23S130.56,94.76,130.56,95.87Z" transform="translate(-5.89 -0.81)"/>
    <path d="M136.5,94.52c0-.6,0-1.09,0-1.57h.94l.06,1h0a2.13,2.13,0,0,1,1.92-1.09c.8,0,2.05.48,2.05,2.47v3.47h-1.06V95.41c0-.94-.35-1.72-1.34-1.72a1.5,1.5,0,0,0-1.42,1.08,1.52,1.52,0,0,0-.07.49v3.49H136.5Z" transform="translate(-5.89 -0.81)"/>
    <path d="M142.48,100.23a17.27,17.27,0,0,0,.72-2.87l1.18-.12a14.66,14.66,0,0,1-1.14,2.91Z" transform="translate(-5.89 -0.81)"/>
    <path d="M148.22,90.78a10.82,10.82,0,0,1,2-.17,3.3,3.3,0,0,1,2.34.66,2,2,0,0,1,.64,1.54,2.12,2.12,0,0,1-1.52,2.06v0a2,2,0,0,1,1.19,1.63,12.93,12.93,0,0,0,.62,2.22h-1.08a10.44,10.44,0,0,1-.54-1.93c-.24-1.12-.67-1.54-1.62-1.57h-1v3.5h-1Zm1,3.68h1.07c1.12,0,1.82-.61,1.82-1.54s-.76-1.5-1.86-1.51a4.3,4.3,0,0,0-1,.1Z" transform="translate(-5.89 -0.81)"/>
    <path d="M154.75,90.24h1.06v3.62h0a2,2,0,0,1,.75-.74,2.18,2.18,0,0,1,1.08-.3c.78,0,2,.48,2,2.48v3.45h-1.06V95.42c0-.94-.35-1.73-1.34-1.73a1.52,1.52,0,0,0-1.42,1.06,1.27,1.27,0,0,0-.07.5v3.5h-1.06Z" transform="translate(-5.89 -0.81)"/>
    <path d="M162.59,91.32a.65.65,0,0,1-1.31,0,.64.64,0,0,1,.66-.66A.63.63,0,0,1,162.59,91.32Zm-1.17,7.44V93h1.06v5.8Z" transform="translate(-5.89 -0.81)"/>
    <path d="M164.22,94.52c0-.6,0-1.09,0-1.57h.94l.06,1h0a2.14,2.14,0,0,1,1.92-1.09c.8,0,2.05.48,2.05,2.47v3.47h-1.06V95.41c0-.94-.35-1.72-1.34-1.72a1.5,1.5,0,0,0-1.42,1.08,1.52,1.52,0,0,0-.07.49v3.49h-1.06Z" transform="translate(-5.89 -0.81)"/>
    <path d="M176.13,95.81a2.84,2.84,0,0,1-2.89,3.08,2.76,2.76,0,0,1-2.78-3,2.83,2.83,0,0,1,2.88-3.08A2.75,2.75,0,0,1,176.13,95.81Zm-4.61.06c0,1.27.73,2.23,1.76,2.23s1.76-.95,1.76-2.25c0-1-.49-2.23-1.74-2.23S171.53,94.76,171.53,95.87Z" transform="translate(-5.89 -0.81)"/>
  </g>
  <g>
    <path d="M348.45,69.6a10.37,10.37,0,0,1-4.27.77c-4.56,0-8-2.88-8-8.19,0-5.06,3.43-8.5,8.45-8.5a8.67,8.67,0,0,1,3.84.72l-.5,1.7a7.6,7.6,0,0,0-3.26-.67c-3.79,0-6.31,2.42-6.31,6.67,0,4,2.28,6.5,6.22,6.5a8.37,8.37,0,0,0,3.41-.67Z" transform="translate(-5.89 -0.81)"/>
    <path d="M353.78,65l-1.68,5.09h-2.16l5.5-16.18H358l5.52,16.18h-2.23L359.51,65Zm5.3-1.63-1.58-4.66c-.36-1.06-.6-2-.84-3h0c-.24,1-.5,1.94-.82,2.93l-1.58,4.68Z" transform="translate(-5.89 -0.81)"/>
    <path d="M379.38,63c-.12-2.26-.26-5-.24-7h-.07c-.55,1.9-1.22,3.91-2,6.14L374.18,70h-1.58L370,62.32C369.21,60,368.56,58,368.1,56h0c0,2-.17,4.73-.31,7.15l-.43,6.94h-2l1.13-16.18h2.66l2.76,7.82c.67,2,1.22,3.77,1.63,5.45h.07c.41-1.63,1-3.41,1.7-5.45l2.88-7.82h2.66l1,16.18h-2Z" transform="translate(-5.89 -0.81)"/>
    <path d="M389.85,67.58a7.4,7.4,0,0,0,3.74,1.06c2.14,0,3.38-1.13,3.38-2.76s-.86-2.38-3-3.22c-2.64-.94-4.27-2.3-4.27-4.58,0-2.52,2.09-4.39,5.23-4.39a7.35,7.35,0,0,1,3.58.79l-.58,1.7a6.44,6.44,0,0,0-3.07-.77c-2.21,0-3,1.32-3,2.42,0,1.51,1,2.26,3.22,3.12,2.74,1.06,4.13,2.38,4.13,4.75s-1.85,4.66-5.66,4.66a8.36,8.36,0,0,1-4.13-1Z" transform="translate(-5.89 -0.81)"/>
    <path d="M412.55,64.22c0,4.3-3,6.17-5.78,6.17-3.14,0-5.57-2.3-5.57-6,0-3.89,2.54-6.17,5.76-6.17S412.55,60.67,412.55,64.22Zm-9.22.12c0,2.54,1.46,4.46,3.53,4.46s3.53-1.9,3.53-4.51c0-2-1-4.46-3.48-4.46S403.33,62.13,403.33,64.34Z" transform="translate(-5.89 -0.81)"/>
    <path d="M415.43,70.12v-10H413.8V58.51h1.63V58a5.48,5.48,0,0,1,1.34-4.06,4,4,0,0,1,2.83-1.08,4.89,4.89,0,0,1,1.8.34l-.29,1.63a3.15,3.15,0,0,0-1.34-.26c-1.8,0-2.26,1.58-2.26,3.36v.62h2.81v1.61h-2.81v10Z" transform="translate(-5.89 -0.81)"/>
    <path d="M425,55.17v3.34h3v1.61h-3v6.26c0,1.44.41,2.26,1.58,2.26a4.68,4.68,0,0,0,1.22-.14l.1,1.58a5.17,5.17,0,0,1-1.87.29,2.93,2.93,0,0,1-2.28-.89,4.3,4.3,0,0,1-.82-3V60.12h-1.8V58.51H423V55.72Z" transform="translate(-5.89 -0.81)"/>
    <path d="M431.49,58.51l1.54,5.9c.34,1.3.65,2.5.86,3.7H434c.26-1.18.65-2.42,1-3.67l1.9-5.93h1.78l1.8,5.81c.43,1.39.77,2.62,1,3.79h.07a35,35,0,0,1,.89-3.77l1.66-5.83h2.09l-3.74,11.62h-1.92l-1.78-5.54a38.84,38.84,0,0,1-1-3.82h0a34.35,34.35,0,0,1-1.06,3.84l-1.87,5.52h-1.92l-3.5-11.62Z" transform="translate(-5.89 -0.81)"/>
    <path d="M454.65,70.12l-.17-1.46h-.07a4.33,4.33,0,0,1-3.55,1.73,3.31,3.31,0,0,1-3.55-3.34c0-2.81,2.5-4.34,7-4.32v-.24a2.39,2.39,0,0,0-2.64-2.69,5.79,5.79,0,0,0-3,.86l-.48-1.39a7.21,7.21,0,0,1,3.82-1c3.55,0,4.42,2.42,4.42,4.75v4.34a16.36,16.36,0,0,0,.19,2.78Zm-.31-5.93c-2.3,0-4.92.36-4.92,2.62a1.87,1.87,0,0,0,2,2,2.89,2.89,0,0,0,2.81-1.94,2.2,2.2,0,0,0,.12-.67Z" transform="translate(-5.89 -0.81)"/>
    <path d="M459.78,62.13c0-1.37,0-2.54-.1-3.62h1.85l.07,2.28h.1a3.49,3.49,0,0,1,3.22-2.54,2.3,2.3,0,0,1,.6.07v2a3.19,3.19,0,0,0-.72-.07A3,3,0,0,0,462,62.95a5.91,5.91,0,0,0-.1,1v6.19h-2.09Z" transform="translate(-5.89 -0.81)"/>
    <path d="M468.57,64.7a3.72,3.72,0,0,0,4,4,7.64,7.64,0,0,0,3.22-.6l.36,1.51a9.41,9.41,0,0,1-3.86.72c-3.58,0-5.71-2.35-5.71-5.86s2.06-6.26,5.45-6.26c3.79,0,4.8,3.34,4.8,5.47a8,8,0,0,1-.07,1Zm6.19-1.51c0-1.34-.55-3.43-2.93-3.43-2.14,0-3.07,2-3.24,3.43Z" transform="translate(-5.89 -0.81)"/>
    <path d="M336.23,90.84h4.35v.88h-3.31V94.4h3.06v.86h-3.06v3.66h-1Z" transform="translate(-5.89 -0.81)"/>
    <path d="M346.48,97.34c0,.6,0,1.13,0,1.58h-.94l-.06-.95h0a2.18,2.18,0,0,1-1.92,1.08c-.91,0-2-.5-2-2.54V93.12h1.06v3.21c0,1.1.34,1.85,1.3,1.85a1.53,1.53,0,0,0,1.39-1,1.54,1.54,0,0,0,.1-.54V93.12h1.06Z" transform="translate(-5.89 -0.81)"/>
    <path d="M348.09,97.85a2.78,2.78,0,0,0,1.39.42c.77,0,1.13-.38,1.13-.86s-.3-.78-1.08-1.07c-1-.37-1.54-.95-1.54-1.64a1.79,1.79,0,0,1,2-1.7,2.9,2.9,0,0,1,1.43.36l-.26.77a2.26,2.26,0,0,0-1.19-.34c-.62,0-1,.36-1,.79s.35.7,1.1,1c1,.38,1.52.89,1.52,1.75,0,1-.79,1.74-2.17,1.74a3.32,3.32,0,0,1-1.63-.4Z" transform="translate(-5.89 -0.81)"/>
    <path d="M354.16,91.49a.65.65,0,0,1-1.31,0,.64.64,0,0,1,.66-.66A.63.63,0,0,1,354.16,91.49ZM353,98.92v-5.8H354v5.8Z" transform="translate(-5.89 -0.81)"/>
    <path d="M361,96a2.84,2.84,0,0,1-2.89,3.08,2.76,2.76,0,0,1-2.78-3A2.83,2.83,0,0,1,358.25,93,2.75,2.75,0,0,1,361,96Zm-4.61.06c0,1.27.73,2.23,1.76,2.23S360,97.32,360,96c0-1-.49-2.23-1.74-2.23S356.44,94.93,356.44,96Z" transform="translate(-5.89 -0.81)"/>
    <path d="M362.38,94.69c0-.6,0-1.09,0-1.57h.94l.06,1h0A2.13,2.13,0,0,1,365.27,93c.8,0,2.05.48,2.05,2.47v3.47h-1.06V95.58c0-.94-.35-1.72-1.34-1.72a1.5,1.5,0,0,0-1.42,1.08,1.52,1.52,0,0,0-.07.49v3.49h-1.06Z" transform="translate(-5.89 -0.81)"/>
    <path d="M368.36,100.4a17.27,17.27,0,0,0,.72-2.87l1.18-.12a14.63,14.63,0,0,1-1.14,2.91Z" transform="translate(-5.89 -0.81)"/>
    <path d="M375.15,90.84v3.38h3.91V90.84h1.06v8.08h-1.06V95.13h-3.91v3.79h-1V90.84Z" transform="translate(-5.89 -0.81)"/>
    <path d="M381.78,97.65a3.7,3.7,0,0,0,1.87.53c1.07,0,1.69-.56,1.69-1.38s-.43-1.19-1.52-1.61c-1.32-.47-2.13-1.15-2.13-2.29a2.33,2.33,0,0,1,2.61-2.2,3.67,3.67,0,0,1,1.79.4l-.29.85a3.21,3.21,0,0,0-1.54-.38c-1.1,0-1.52.66-1.52,1.21,0,.76.49,1.13,1.61,1.56,1.37.53,2.06,1.19,2.06,2.37S385.49,99,383.58,99a4.18,4.18,0,0,1-2.06-.52Z" transform="translate(-5.89 -0.81)"/>
    <path d="M394.65,95.37c-.06-1.13-.13-2.48-.12-3.49h0c-.28.95-.61,2-1,3.07l-1.43,3.92h-.79L390,95c-.38-1.14-.71-2.18-.94-3.14h0c0,1-.08,2.36-.16,3.57l-.22,3.47h-1l.56-8.08h1.33l1.38,3.91c.34,1,.61,1.88.82,2.72h0c.2-.82.49-1.7.85-2.72L394,90.84h1.33l.5,8.08h-1Z" transform="translate(-5.89 -0.81)"/>
    <path d="M396.77,100.4a17.27,17.27,0,0,0,.72-2.87l1.18-.12a14.63,14.63,0,0,1-1.14,2.91Z" transform="translate(-5.89 -0.81)"/>
    <path d="M402.52,90.95a10.83,10.83,0,0,1,2-.17,3.3,3.3,0,0,1,2.34.66A2,2,0,0,1,407.5,93,2.12,2.12,0,0,1,406,95v0a2,2,0,0,1,1.19,1.63,12.88,12.88,0,0,0,.62,2.22H406.7a10.46,10.46,0,0,1-.54-1.93c-.24-1.12-.67-1.54-1.62-1.57h-1v3.5h-1Zm1,3.68h1.07c1.12,0,1.82-.61,1.82-1.54s-.76-1.5-1.86-1.51a4.3,4.3,0,0,0-1,.1Z" transform="translate(-5.89 -0.81)"/>
    <path d="M409,90.41h1.06V94h0a2,2,0,0,1,.76-.74A2.17,2.17,0,0,1,412,93c.78,0,2,.48,2,2.48v3.45h-1.06V95.59c0-.94-.35-1.73-1.34-1.73a1.52,1.52,0,0,0-1.42,1.06,1.28,1.28,0,0,0-.07.5v3.5H409Z" transform="translate(-5.89 -0.81)"/>
    <path d="M416.88,91.49a.65.65,0,0,1-1.31,0,.64.64,0,0,1,.66-.66A.63.63,0,0,1,416.88,91.49Zm-1.18,7.44v-5.8h1.06v5.8Z" transform="translate(-5.89 -0.81)"/>
    <path d="M418.51,94.69c0-.6,0-1.09,0-1.57h.94l.06,1h0A2.13,2.13,0,0,1,421.4,93c.8,0,2.05.48,2.05,2.47v3.47H422.4V95.58c0-.94-.35-1.72-1.34-1.72a1.5,1.5,0,0,0-1.42,1.08,1.52,1.52,0,0,0-.07.49v3.49h-1.06Z" transform="translate(-5.89 -0.81)"/>
    <path d="M430.43,96a2.84,2.84,0,0,1-2.89,3.08,2.76,2.76,0,0,1-2.78-3A2.83,2.83,0,0,1,427.63,93,2.75,2.75,0,0,1,430.43,96Zm-4.61.06c0,1.27.73,2.23,1.76,2.23s1.76-.95,1.76-2.25c0-1-.49-2.23-1.74-2.23S425.82,94.93,425.82,96Z" transform="translate(-5.89 -0.81)"/>
    <path d="M437.45,98.66a5.19,5.19,0,0,1-2.13.38,3.78,3.78,0,0,1-4-4.09,4,4,0,0,1,4.22-4.25,4.32,4.32,0,0,1,1.92.36l-.25.85a3.79,3.79,0,0,0-1.63-.34,3,3,0,0,0-3.15,3.33,2.94,2.94,0,0,0,3.11,3.25,4.17,4.17,0,0,0,1.7-.34Z" transform="translate(-5.89 -0.81)"/>
    <path d="M440.11,96.38l-.84,2.54h-1.08l2.75-8.08h1.26L445,98.92h-1.12L443,96.38Zm2.65-.82L442,93.24c-.18-.53-.3-1-.42-1.48h0c-.12.48-.25,1-.41,1.46l-.79,2.34Z" transform="translate(-5.89 -0.81)"/>
    <path d="M452.91,95.37c-.06-1.13-.13-2.48-.12-3.49h0c-.28.95-.61,2-1,3.07l-1.43,3.92h-.79L448.21,95c-.38-1.14-.71-2.18-.94-3.14h0c0,1-.08,2.36-.16,3.57l-.22,3.47h-1l.56-8.08h1.33l1.38,3.91c.34,1,.61,1.88.82,2.72h0c.2-.82.49-1.7.85-2.72l1.44-3.91h1.33l.5,8.08h-1Z" transform="translate(-5.89 -0.81)"/>
  </g>
  <g>
    <path d="M623.48,54.31a24.21,24.21,0,0,1,4-.31A6.65,6.65,0,0,1,632,55.34a4.35,4.35,0,0,1,1.42,3.38,4.76,4.76,0,0,1-1.25,3.46A6.7,6.7,0,0,1,627.25,64a7.19,7.19,0,0,1-1.68-.14v6.48h-2.09Zm2.09,7.8a7,7,0,0,0,1.73.17c2.52,0,4.06-1.22,4.06-3.46s-1.51-3.17-3.82-3.17a8.76,8.76,0,0,0-2,.17Z" transform="translate(-5.89 -0.81)"/>
    <path d="M646.09,64.39c0,4.3-3,6.17-5.79,6.17-3.14,0-5.57-2.3-5.57-6,0-3.89,2.54-6.17,5.76-6.17S646.09,60.83,646.09,64.39Zm-9.22.12c0,2.54,1.46,4.46,3.53,4.46s3.53-1.9,3.53-4.51c0-2-1-4.46-3.48-4.46S636.87,62.3,636.87,64.51Z" transform="translate(-5.89 -0.81)"/>
    <path d="M648.46,68.13a5.53,5.53,0,0,0,2.78.84c1.54,0,2.26-.77,2.26-1.73s-.6-1.56-2.16-2.14c-2.09-.74-3.07-1.9-3.07-3.29,0-1.87,1.51-3.41,4-3.41a5.8,5.8,0,0,1,2.86.72l-.53,1.54a4.52,4.52,0,0,0-2.38-.67c-1.25,0-1.94.72-1.94,1.58s.7,1.39,2.21,2c2,.77,3,1.78,3,3.5,0,2-1.58,3.48-4.34,3.48a6.62,6.62,0,0,1-3.26-.79Z" transform="translate(-5.89 -0.81)"/>
    <path d="M660.8,55.34v3.34h3v1.61h-3v6.26c0,1.44.41,2.26,1.58,2.26a4.68,4.68,0,0,0,1.22-.14l.1,1.58a5.17,5.17,0,0,1-1.87.29,2.93,2.93,0,0,1-2.28-.89,4.3,4.3,0,0,1-.82-3V60.28h-1.8V58.67h1.8V55.89Z" transform="translate(-5.89 -0.81)"/>
    <path d="M671.36,54.31a24.2,24.2,0,0,1,4-.31,6.64,6.64,0,0,1,4.54,1.34,4.35,4.35,0,0,1,1.42,3.38,4.76,4.76,0,0,1-1.25,3.46A6.7,6.7,0,0,1,675.13,64a7.18,7.18,0,0,1-1.68-.14v6.48h-2.09Zm2.09,7.8a7,7,0,0,0,1.73.17c2.52,0,4.06-1.22,4.06-3.46s-1.51-3.17-3.82-3.17a8.75,8.75,0,0,0-2,.17Z" transform="translate(-5.89 -0.81)"/>
    <path d="M683.67,62.3c0-1.37,0-2.54-.1-3.62h1.85l.07,2.28h.1a3.48,3.48,0,0,1,3.22-2.54,2.3,2.3,0,0,1,.6.07v2a3.19,3.19,0,0,0-.72-.07,3,3,0,0,0-2.83,2.71,6,6,0,0,0-.1,1v6.19h-2.09Z" transform="translate(-5.89 -0.81)"/>
    <path d="M701.79,64.39c0,4.3-3,6.17-5.78,6.17-3.14,0-5.57-2.3-5.57-6,0-3.89,2.54-6.17,5.76-6.17S701.79,60.83,701.79,64.39Zm-9.22.12c0,2.54,1.46,4.46,3.53,4.46s3.53-1.9,3.53-4.51c0-2-1-4.46-3.48-4.46S692.57,62.3,692.57,64.51Z" transform="translate(-5.89 -0.81)"/>
    <path d="M712.73,69.86a7.78,7.78,0,0,1-3.34.67c-3.5,0-5.79-2.38-5.79-5.93a5.9,5.9,0,0,1,6.24-6.17,7.06,7.06,0,0,1,2.93.6l-.48,1.63a4.9,4.9,0,0,0-2.45-.55c-2.67,0-4.1,2-4.1,4.39,0,2.69,1.73,4.34,4,4.34a6,6,0,0,0,2.59-.58Z" transform="translate(-5.89 -0.81)"/>
    <path d="M716.24,64.87a3.72,3.72,0,0,0,4,4,7.64,7.64,0,0,0,3.22-.6l.36,1.51a9.41,9.41,0,0,1-3.86.72c-3.58,0-5.71-2.35-5.71-5.86s2.06-6.26,5.45-6.26c3.79,0,4.8,3.34,4.8,5.47a8.08,8.08,0,0,1-.07,1Zm6.19-1.51c0-1.34-.55-3.43-2.93-3.43-2.14,0-3.07,2-3.24,3.43Z" transform="translate(-5.89 -0.81)"/>
    <path d="M726.8,68.13a5.53,5.53,0,0,0,2.78.84c1.54,0,2.26-.77,2.26-1.73s-.6-1.56-2.16-2.14c-2.09-.74-3.07-1.9-3.07-3.29,0-1.87,1.51-3.41,4-3.41a5.8,5.8,0,0,1,2.86.72l-.53,1.54a4.52,4.52,0,0,0-2.38-.67c-1.25,0-1.94.72-1.94,1.58s.7,1.39,2.21,2c2,.77,3,1.78,3,3.5,0,2-1.58,3.48-4.34,3.48a6.62,6.62,0,0,1-3.26-.79Z" transform="translate(-5.89 -0.81)"/>
    <path d="M736.3,68.13a5.53,5.53,0,0,0,2.78.84c1.54,0,2.26-.77,2.26-1.73s-.6-1.56-2.16-2.14c-2.09-.74-3.07-1.9-3.07-3.29,0-1.87,1.51-3.41,4-3.41a5.8,5.8,0,0,1,2.86.72l-.53,1.54a4.52,4.52,0,0,0-2.38-.67c-1.25,0-1.94.72-1.94,1.58s.7,1.39,2.21,2c2,.77,3,1.78,3,3.5,0,2-1.58,3.48-4.34,3.48a6.62,6.62,0,0,1-3.26-.79Z" transform="translate(-5.89 -0.81)"/>
    <path d="M756.61,64.39c0,4.3-3,6.17-5.79,6.17-3.14,0-5.57-2.3-5.57-6,0-3.89,2.54-6.17,5.76-6.17S756.61,60.83,756.61,64.39Zm-9.22.12c0,2.54,1.46,4.46,3.53,4.46s3.53-1.9,3.53-4.51c0-2-1-4.46-3.48-4.46S747.39,62.3,747.39,64.51Z" transform="translate(-5.89 -0.81)"/>
    <path d="M759.27,62.3c0-1.37,0-2.54-.1-3.62H761l.07,2.28h.1a3.48,3.48,0,0,1,3.22-2.54,2.3,2.3,0,0,1,.6.07v2a3.19,3.19,0,0,0-.72-.07,3,3,0,0,0-2.83,2.71,6,6,0,0,0-.1,1v6.19h-2.09Z" transform="translate(-5.89 -0.81)"/>
    <path d="M622.42,97.82a3.7,3.7,0,0,0,1.87.53c1.07,0,1.69-.56,1.69-1.38s-.43-1.19-1.52-1.61c-1.32-.47-2.13-1.15-2.13-2.29a2.33,2.33,0,0,1,2.61-2.2,3.67,3.67,0,0,1,1.79.4l-.29.85a3.21,3.21,0,0,0-1.54-.38c-1.1,0-1.52.66-1.52,1.21,0,.76.49,1.13,1.61,1.56,1.37.53,2.06,1.19,2.06,2.37s-.92,2.33-2.83,2.33a4.18,4.18,0,0,1-2.06-.52Z" transform="translate(-5.89 -0.81)"/>
    <path d="M628.45,95.18c0-.74,0-1.34,0-1.89h.95l0,1h0a2.28,2.28,0,0,1,2.06-1.13c1.4,0,2.46,1.19,2.46,3,0,2.09-1.27,3.12-2.64,3.12a2,2,0,0,1-1.79-.91h0v3.15h-1Zm1,1.55a2.43,2.43,0,0,0,0,.43,1.63,1.63,0,0,0,1.58,1.24c1.12,0,1.76-.91,1.76-2.24,0-1.16-.61-2.16-1.73-2.16a1.68,1.68,0,0,0-1.59,1.31,1.71,1.71,0,0,0-.07.43Z" transform="translate(-5.89 -0.81)"/>
    <path d="M635.86,96.38a1.86,1.86,0,0,0,2,2,3.81,3.81,0,0,0,1.61-.3l.18.75a4.7,4.7,0,0,1-1.93.36,2.7,2.7,0,0,1-2.85-2.93c0-1.75,1-3.13,2.72-3.13a2.46,2.46,0,0,1,2.4,2.73,4,4,0,0,1,0,.49Zm3.09-.75a1.5,1.5,0,0,0-1.46-1.71,1.75,1.75,0,0,0-1.62,1.71Z" transform="translate(-5.89 -0.81)"/>
    <path d="M645.42,98.88a3.9,3.9,0,0,1-1.67.34,2.76,2.76,0,0,1-2.89-3A3,3,0,0,1,644,93.17a3.53,3.53,0,0,1,1.46.3l-.24.82A2.45,2.45,0,0,0,644,94a2.19,2.19,0,0,0,0,4.37,3,3,0,0,0,1.3-.29Z" transform="translate(-5.89 -0.81)"/>
    <path d="M647.84,91.66a.65.65,0,0,1-1.31,0,.64.64,0,0,1,.66-.66A.63.63,0,0,1,647.84,91.66Zm-1.17,7.44v-5.8h1.06v5.8Z" transform="translate(-5.89 -0.81)"/>
    <path d="M649.58,99.09v-5h-.82v-.8h.82V93a2.33,2.33,0,0,1,2.53-2.53,2.91,2.91,0,0,1,1.47.38l-.3.8a2.22,2.22,0,0,0-1.22-.34c-1.12,0-1.44.78-1.44,1.7v.29H654v5.8h-1v-5h-2.33v5Z" transform="translate(-5.89 -0.81)"/>
    <path d="M659.88,98.88a3.89,3.89,0,0,1-1.67.34,2.76,2.76,0,0,1-2.89-3,3,3,0,0,1,3.12-3.08,3.54,3.54,0,0,1,1.46.3l-.24.82a2.45,2.45,0,0,0-1.22-.28,2.19,2.19,0,0,0,0,4.37,3,3,0,0,0,1.29-.29Z" transform="translate(-5.89 -0.81)"/>
    <path d="M664.94,91.62v1.67h1.51v.8h-1.51v3.13c0,.72.2,1.13.79,1.13a2.34,2.34,0,0,0,.61-.07l0,.79a2.58,2.58,0,0,1-.94.14,1.46,1.46,0,0,1-1.14-.44,2.15,2.15,0,0,1-.41-1.51V94.09H663v-.8h.9V91.9Z" transform="translate(-5.89 -0.81)"/>
    <path d="M672.82,96.14a2.84,2.84,0,0,1-2.89,3.08,2.76,2.76,0,0,1-2.78-3A2.83,2.83,0,0,1,670,93.16,2.75,2.75,0,0,1,672.82,96.14Zm-4.61.06c0,1.27.73,2.23,1.76,2.23s1.76-.95,1.76-2.25c0-1-.49-2.23-1.74-2.23S668.21,95.1,668.21,96.2Z" transform="translate(-5.89 -0.81)"/>
    <path d="M676.7,94.86c0-.6,0-1.09,0-1.57h.92l0,.94h0a2,2,0,0,1,1.82-1.07,1.72,1.72,0,0,1,1.64,1.16h0a2.4,2.4,0,0,1,.65-.76,2,2,0,0,1,1.28-.41c.77,0,1.91.5,1.91,2.52v3.42h-1V95.81c0-1.12-.41-1.79-1.26-1.79a1.37,1.37,0,0,0-1.25,1,1.73,1.73,0,0,0-.08.53v3.59h-1V95.61c0-.92-.41-1.59-1.21-1.59a1.44,1.44,0,0,0-1.31,1.06,1.46,1.46,0,0,0-.08.52v3.5h-1Z" transform="translate(-5.89 -0.81)"/>
    <path d="M689.92,99.09l-.08-.73h0a2.16,2.16,0,0,1-1.78.86,1.65,1.65,0,0,1-1.77-1.67c0-1.4,1.25-2.17,3.49-2.16v-.12a1.2,1.2,0,0,0-1.32-1.34,2.9,2.9,0,0,0-1.51.43l-.24-.7a3.61,3.61,0,0,1,1.91-.52c1.78,0,2.21,1.21,2.21,2.37V97.7a8.14,8.14,0,0,0,.1,1.39Zm-.16-3c-1.15,0-2.46.18-2.46,1.31a.93.93,0,0,0,1,1,1.44,1.44,0,0,0,1.4-1,1.13,1.13,0,0,0,.06-.34Z" transform="translate(-5.89 -0.81)"/>
    <path d="M696.63,98.88a3.9,3.9,0,0,1-1.67.34,2.76,2.76,0,0,1-2.89-3,3,3,0,0,1,3.12-3.08,3.53,3.53,0,0,1,1.46.3l-.24.82a2.45,2.45,0,0,0-1.22-.28,2.19,2.19,0,0,0,0,4.37,3,3,0,0,0,1.3-.29Z" transform="translate(-5.89 -0.81)"/>
    <path d="M697.86,90.58h1.06V94.2h0a2,2,0,0,1,.76-.74,2.17,2.17,0,0,1,1.08-.3c.78,0,2,.48,2,2.48v3.45h-1.06V95.76c0-.94-.35-1.73-1.34-1.73A1.52,1.52,0,0,0,699,95.09a1.29,1.29,0,0,0-.07.5v3.5h-1.06Z" transform="translate(-5.89 -0.81)"/>
    <path d="M705.7,91.66a.65.65,0,0,1-1.31,0,.64.64,0,0,1,.66-.66A.63.63,0,0,1,705.7,91.66Zm-1.17,7.44v-5.8h1.06v5.8Z" transform="translate(-5.89 -0.81)"/>
    <path d="M707.33,94.86c0-.6,0-1.09,0-1.57h.94l.06,1h0a2.13,2.13,0,0,1,1.92-1.09c.8,0,2.05.48,2.05,2.47v3.47h-1.06V95.75c0-.94-.35-1.72-1.34-1.72a1.5,1.5,0,0,0-1.42,1.08,1.52,1.52,0,0,0-.07.49v3.49h-1.06Z" transform="translate(-5.89 -0.81)"/>
    <path d="M714.58,96.38a1.86,1.86,0,0,0,2,2,3.82,3.82,0,0,0,1.61-.3l.18.75a4.7,4.7,0,0,1-1.93.36,2.7,2.7,0,0,1-2.85-2.93c0-1.75,1-3.13,2.72-3.13a2.46,2.46,0,0,1,2.4,2.73,4,4,0,0,1,0,.49Zm3.09-.75a1.5,1.5,0,0,0-1.46-1.71,1.75,1.75,0,0,0-1.62,1.71Z" transform="translate(-5.89 -0.81)"/>
  </g>
  <g>
    <path d="M948.33,69.74a15.06,15.06,0,0,1-5,.89,7.6,7.6,0,0,1-8.3-8.16c0-4.82,3.34-8.35,8.76-8.35a10,10,0,0,1,4,.74l-.5,1.7a8.38,8.38,0,0,0-3.58-.7c-3.94,0-6.5,2.45-6.5,6.5s2.47,6.53,6.24,6.53a6.8,6.8,0,0,0,2.78-.43V63.64H943V62h5.33Z" transform="translate(-5.89 -0.81)"/>
    <path d="M962.83,69.93a10.37,10.37,0,0,1-4.27.77c-4.56,0-8-2.88-8-8.19,0-5.06,3.43-8.5,8.45-8.5a8.67,8.67,0,0,1,3.84.72l-.5,1.7a7.6,7.6,0,0,0-3.26-.67c-3.79,0-6.31,2.42-6.31,6.67,0,4,2.28,6.5,6.22,6.5a8.37,8.37,0,0,0,3.41-.67Z" transform="translate(-5.89 -0.81)"/>
    <path d="M975.62,64.55c0,4.3-3,6.17-5.78,6.17-3.14,0-5.57-2.3-5.57-6,0-3.89,2.54-6.17,5.76-6.17S975.62,61,975.62,64.55Zm-9.22.12c0,2.54,1.46,4.46,3.53,4.46s3.53-1.9,3.53-4.51c0-2-1-4.46-3.48-4.46S966.4,62.47,966.4,64.67Z" transform="translate(-5.89 -0.81)"/>
    <path d="M988.32,53.42v14c0,1,0,2.21.1,3h-1.9l-.1-2h0a4.3,4.3,0,0,1-4,2.28c-2.81,0-5-2.38-5-5.9,0-3.86,2.38-6.24,5.21-6.24a3.89,3.89,0,0,1,3.5,1.78h0V53.42Zm-2.11,10.15a3.72,3.72,0,0,0-.1-.89,3.11,3.11,0,0,0-3-2.45c-2.18,0-3.48,1.92-3.48,4.49,0,2.35,1.15,4.3,3.43,4.3a3.17,3.17,0,0,0,3.1-2.52,3.66,3.66,0,0,0,.1-.91Z" transform="translate(-5.89 -0.81)"/>
    <path d="M993,65a3.72,3.72,0,0,0,4,4,7.64,7.64,0,0,0,3.22-.6l.36,1.51a9.41,9.41,0,0,1-3.86.72c-3.58,0-5.71-2.35-5.71-5.86s2.06-6.26,5.45-6.26c3.79,0,4.8,3.34,4.8,5.47a7.88,7.88,0,0,1-.07,1Zm6.19-1.51c0-1.34-.55-3.43-2.93-3.43-2.14,0-3.07,2-3.24,3.43Z" transform="translate(-5.89 -0.81)"/>
    <path d="M941.92,95.71c-.06-1.13-.13-2.48-.12-3.49h0c-.28.95-.61,2-1,3.07l-1.43,3.92h-.79l-1.31-3.85c-.38-1.14-.71-2.18-.94-3.14h0c0,1-.08,2.36-.16,3.57l-.22,3.47h-1l.56-8.08h1.33l1.38,3.91c.34,1,.61,1.88.82,2.72h0c.2-.82.49-1.7.85-2.72l1.44-3.91h1.33l.5,8.08h-1Z" transform="translate(-5.89 -0.81)"/>
    <path d="M948,99.26l-.08-.73h0a2.16,2.16,0,0,1-1.78.86,1.65,1.65,0,0,1-1.77-1.67c0-1.4,1.25-2.17,3.49-2.16v-.12a1.2,1.2,0,0,0-1.32-1.34,2.9,2.9,0,0,0-1.51.43l-.24-.7a3.61,3.61,0,0,1,1.91-.52c1.78,0,2.21,1.21,2.21,2.37v2.17a8.14,8.14,0,0,0,.1,1.39Zm-.16-3c-1.15,0-2.46.18-2.46,1.31a.93.93,0,0,0,1,1,1.44,1.44,0,0,0,1.4-1,1.13,1.13,0,0,0,.06-.34Z" transform="translate(-5.89 -0.81)"/>
    <path d="M954.71,99a3.89,3.89,0,0,1-1.67.34,2.76,2.76,0,0,1-2.89-3,3,3,0,0,1,3.12-3.08,3.54,3.54,0,0,1,1.46.3l-.24.82a2.45,2.45,0,0,0-1.22-.28,2.19,2.19,0,0,0,0,4.37,3,3,0,0,0,1.29-.29Z" transform="translate(-5.89 -0.81)"/>
    <path d="M956,90.74H957v3.62h0a2,2,0,0,1,.75-.74,2.18,2.18,0,0,1,1.08-.3c.78,0,2,.48,2,2.48v3.45h-1.06V95.92c0-.94-.35-1.73-1.34-1.73a1.52,1.52,0,0,0-1.42,1.06,1.27,1.27,0,0,0-.07.5v3.5H956Z" transform="translate(-5.89 -0.81)"/>
    <path d="M963.79,91.82a.65.65,0,0,1-1.31,0,.64.64,0,0,1,.66-.66A.63.63,0,0,1,963.79,91.82Zm-1.17,7.44v-5.8h1.06v5.8Z" transform="translate(-5.89 -0.81)"/>
    <path d="M965.42,95c0-.6,0-1.09,0-1.57h.94l.06,1h0a2.14,2.14,0,0,1,1.92-1.09c.8,0,2.05.48,2.05,2.47v3.47h-1.06V95.91c0-.94-.35-1.72-1.34-1.72a1.5,1.5,0,0,0-1.42,1.08,1.52,1.52,0,0,0-.07.49v3.49h-1.06Z" transform="translate(-5.89 -0.81)"/>
    <path d="M972.67,96.55a1.86,1.86,0,0,0,2,2,3.82,3.82,0,0,0,1.61-.3l.18.75a4.7,4.7,0,0,1-1.93.36,2.7,2.7,0,0,1-2.85-2.93c0-1.75,1-3.13,2.72-3.13a2.46,2.46,0,0,1,2.4,2.73,4,4,0,0,1,0,.49Zm3.09-.75a1.5,1.5,0,0,0-1.46-1.71,1.75,1.75,0,0,0-1.62,1.71Z" transform="translate(-5.89 -0.81)"/>
    <path d="M980.64,90.74h1.06v8.52h-1.06Z" transform="translate(-5.89 -0.81)"/>
    <path d="M986.68,99.26l-.08-.73h0a2.16,2.16,0,0,1-1.77.86A1.65,1.65,0,0,1,983,97.72c0-1.4,1.25-2.17,3.49-2.16v-.12a1.2,1.2,0,0,0-1.32-1.34,2.89,2.89,0,0,0-1.51.43l-.24-.7a3.61,3.61,0,0,1,1.91-.52c1.77,0,2.21,1.21,2.21,2.37v2.17a8.14,8.14,0,0,0,.1,1.39Zm-.16-3c-1.15,0-2.46.18-2.46,1.31a.93.93,0,0,0,1,1,1.44,1.44,0,0,0,1.4-1,1.1,1.1,0,0,0,.06-.34Z" transform="translate(-5.89 -0.81)"/>
    <path d="M989.25,95c0-.6,0-1.09,0-1.57h.94l.06,1h0a2.13,2.13,0,0,1,1.92-1.09c.8,0,2.05.48,2.05,2.47v3.47h-1.06V95.91c0-.94-.35-1.72-1.34-1.72a1.5,1.5,0,0,0-1.42,1.08,1.52,1.52,0,0,0-.07.49v3.49h-1.06Z" transform="translate(-5.89 -0.81)"/>
    <path d="M1000.91,93.45c0,.42,0,.89,0,1.59v3.37a3.34,3.34,0,0,1-.83,2.65,3.07,3.07,0,0,1-2.11.7,3.75,3.75,0,0,1-1.93-.48l.26-.8a3.28,3.28,0,0,0,1.7.46c1.08,0,1.87-.56,1.87-2v-.65h0a2.07,2.07,0,0,1-1.85,1,2.59,2.59,0,0,1-2.47-2.83,2.79,2.79,0,0,1,2.62-3.08,1.93,1.93,0,0,1,1.81,1h0l0-.87Zm-1.09,2.29a1.54,1.54,0,0,0-1.54-1.6c-1,0-1.73.85-1.73,2.2,0,1.14.58,2.09,1.72,2.09a1.54,1.54,0,0,0,1.46-1.08,1.85,1.85,0,0,0,.08-.56Z" transform="translate(-5.89 -0.81)"/>
    <path d="M1007.48,97.68c0,.6,0,1.13,0,1.58h-.94l-.06-.95h0a2.18,2.18,0,0,1-1.92,1.08c-.91,0-2-.5-2-2.54V93.45h1.06v3.21c0,1.1.34,1.85,1.3,1.85a1.48,1.48,0,0,0,1.49-1.5V93.45h1.06Z" transform="translate(-5.89 -0.81)"/>
    <path d="M1012.44,99.26l-.08-.73h0a2.16,2.16,0,0,1-1.77.86,1.65,1.65,0,0,1-1.78-1.67c0-1.4,1.25-2.17,3.49-2.16v-.12a1.2,1.2,0,0,0-1.32-1.34,2.89,2.89,0,0,0-1.51.43l-.24-.7a3.61,3.61,0,0,1,1.91-.52c1.77,0,2.21,1.21,2.21,2.37v2.17a8.14,8.14,0,0,0,.1,1.39Zm-.16-3c-1.15,0-2.46.18-2.46,1.31a.93.93,0,0,0,1,1,1.44,1.44,0,0,0,1.4-1,1.1,1.1,0,0,0,.06-.34Z" transform="translate(-5.89 -0.81)"/>
    <path d="M1020,93.45c0,.42,0,.89,0,1.59v3.37a3.34,3.34,0,0,1-.83,2.65,3.08,3.08,0,0,1-2.11.7,3.75,3.75,0,0,1-1.93-.48l.26-.8a3.28,3.28,0,0,0,1.7.46c1.08,0,1.87-.56,1.87-2v-.65h0a2.07,2.07,0,0,1-1.85,1,2.59,2.59,0,0,1-2.47-2.83,2.79,2.79,0,0,1,2.61-3.08,1.93,1.93,0,0,1,1.81,1h0l0-.87Zm-1.09,2.29a1.54,1.54,0,0,0-1.54-1.6c-1,0-1.73.85-1.73,2.2,0,1.14.58,2.09,1.71,2.09a1.54,1.54,0,0,0,1.46-1.08,1.85,1.85,0,0,0,.08-.56Z" transform="translate(-5.89 -0.81)"/>
    <path d="M1022.31,96.55a1.86,1.86,0,0,0,2,2,3.81,3.81,0,0,0,1.61-.3l.18.75a4.7,4.7,0,0,1-1.93.36,2.7,2.7,0,0,1-2.85-2.93c0-1.75,1-3.13,2.72-3.13a2.46,2.46,0,0,1,2.4,2.73,4,4,0,0,1,0,.49Zm3.09-.75a1.5,1.5,0,0,0-1.46-1.71,1.75,1.75,0,0,0-1.62,1.71Z" transform="translate(-5.89 -0.81)"/>
  </g>
</svg>
