<svg id="Layer_1" data-name="Layer 1" xmlns="http://www.w3.org/2000/svg" viewBox="0 0 137.63 57.17"><defs><style>.cls-1{fill:#010101;}</style></defs><title>facb</title><g id="Layer_2" data-name="Layer 2"><g id="Layer_1-2" data-name="Layer 1-2"><path class="cls-1" d="M366.62,412.31a2.52,2.52,0,0,0-1.31-.25,2.66,2.66,0,0,0-3,2.3,49.85,49.85,0,0,1-2,6.15,18.19,18.19,0,0,1-2,3.73q-.92,1.23-1.54,1.23-.86,0-.86-1.56a16.62,16.62,0,0,1,.25-2.52q.25-1.54.57-3.22.25-1.23.65-2.75a17,17,0,0,0,.45-2.21,1.05,1.05,0,0,0-.35-.86,2,2,0,0,0-1.25-.29,4,4,0,0,0-2.34.53,3.43,3.43,0,0,0-1.15,1.76,35.32,35.32,0,0,0-1.35,5.43c0,.08,0,.16,0,.24a3.17,3.17,0,0,1-1.76.76q-1,0-1-1.43a15,15,0,0,1,.33-2,20.6,20.6,0,0,0,.37-2.58,2.35,2.35,0,0,0-2.66-2.66,6,6,0,0,0-3,.94,12,12,0,0,0-3.31,3.16,23.29,23.29,0,0,0-3,5.74,29.3,29.3,0,0,1,.41-3q.25-1.23.65-2.87a15.69,15.69,0,0,0,.61-2.94.86.86,0,0,0-.33-.78,2.16,2.16,0,0,0-1.15-.2,4.25,4.25,0,0,0-2.35.55,3.09,3.09,0,0,0-1.21,1.74,32,32,0,0,0-1.09,4.63,21.65,21.65,0,0,1-3.26.5,9.23,9.23,0,0,0-2.23-5.31,6.4,6.4,0,0,0-5-2.16,8.26,8.26,0,0,0-4.63,1.37,9.34,9.34,0,0,0-3.28,3.81,12.52,12.52,0,0,0-1.19,5.55,10.92,10.92,0,0,0,.11,1.55,17.78,17.78,0,0,1-1.63,1.49,4.89,4.89,0,0,1-3.11,1.06,3.41,3.41,0,0,1-3.18-1.72q-1-1.72-1-6,0-1.15.08-3.2h5q4.63,0,4.63-2.83a1.49,1.49,0,0,0-.29-1.06,1.33,1.33,0,0,0-.94-.29H308.3a14.35,14.35,0,0,0,5.33-11.06,6.88,6.88,0,0,0-1-3.81,3.11,3.11,0,0,0-2.71-1.54,5.9,5.9,0,0,0-4.37,2.21,18.58,18.58,0,0,0-3.46,5.94,39.84,39.84,0,0,0-2.13,8.24h-2.33q-1.84,0-1.84,2.29a2,2,0,0,0,.43,1.43,2.29,2.29,0,0,0,1.66.45h1.6q-.12,1.84-.12,3.65,0,1.29.1,2.44a1.52,1.52,0,0,0-.88.55,14.83,14.83,0,0,1-3.83,3.38,7.31,7.31,0,0,1-3.63,1.13q-4.14,0-4.14-4.75a9.68,9.68,0,0,1,.49-3.16,6,6,0,0,1,1.31-2.27,2.45,2.45,0,0,1,1.76-.84,1,1,0,0,1,.76.29,1.16,1.16,0,0,1,.27.82,3.64,3.64,0,0,1-.2,1.15l-.12.53a3,3,0,0,0-.08.65,1.23,1.23,0,0,0,.47,1,2,2,0,0,0,1.25.37,2.28,2.28,0,0,0,2-1.19,5.3,5.3,0,0,0,.76-2.91,4.8,4.8,0,0,0-1.25-3.42,4.57,4.57,0,0,0-3.5-1.33,8,8,0,0,0-4.38,1.35,10,10,0,0,0-3.4,3.85,10.73,10.73,0,0,0-.75,1.84,20.23,20.23,0,0,1-2.65.37,9.35,9.35,0,0,0-2-5.1,6.18,6.18,0,0,0-4.47-2.27,26.51,26.51,0,0,0,4.22-7,18.57,18.57,0,0,0,1.27-6.68,7.1,7.1,0,0,0-1.15-4.2,3.57,3.57,0,0,0-3-1.62q-3.48,0-6,4.37a35.85,35.85,0,0,0-3.83,10.57,55.86,55.86,0,0,0-1.31,11.5,28.83,28.83,0,0,0,.27,4.12,30.66,30.66,0,0,1-2.47,2.67,3.11,3.11,0,0,1-1.88,1,1,1,0,0,1-.8-.37,1.49,1.49,0,0,1-.31-1,39.77,39.77,0,0,1,.94-6.56,30.33,30.33,0,0,0,.61-4.1q0-1.43-2-1.43a9.67,9.67,0,0,0-1.8.16,2.81,2.81,0,0,0-.51-1.25,1.61,1.61,0,0,0-1.21-.35,9.1,9.1,0,0,0-5.35,1.78,12.94,12.94,0,0,0-4,4.71,13.94,13.94,0,0,0-.6,1.33h-.05a26,26,0,0,1-3.66.29,7.84,7.84,0,0,1-.86,0q-1.15-.08-2-.08a1.56,1.56,0,0,0-1,.61,5.61,5.61,0,0,0-1,1.43,2.78,2.78,0,0,0-.35,1.35q.74,3.32,1.18,6.31a43.39,43.39,0,0,1,.43,6.19q0,4.26-1.23,4.26-.66,0-.94-4.45t-.29-8.67a70.42,70.42,0,0,1,.4-7q11.52-11.35,11.52-21a8.6,8.6,0,0,0-1.09-4.63,3.39,3.39,0,0,0-3-1.72q-3.57,0-6.54,5.31a47.57,47.57,0,0,0-4.67,13.4,77.46,77.46,0,0,0-1.7,16q0,8.43,1.25,12.62t4.2,4.18a4.3,4.3,0,0,0,3.77-2.34A13,13,0,0,0,240,435a47.37,47.37,0,0,0-.35-5.1q-.35-3.09-.88-5.64a15.61,15.61,0,0,0,2.83.37,12.07,12.07,0,0,0,1.64-.1v.15a7.37,7.37,0,0,0,1.52,4.84,5,5,0,0,0,4.06,1.84q3.24,0,5.37-3.44a5.61,5.61,0,0,0,1.7,2.52,3.83,3.83,0,0,0,2.48.92,6.07,6.07,0,0,0,3.65-1.43,19.76,19.76,0,0,0,2.75-2.56q.2.43.45.84a6.49,6.49,0,0,0,6,3.16,7.26,7.26,0,0,0,5-2.09,10.62,10.62,0,0,0,3.09-5.49,20.87,20.87,0,0,0,2.43-.24A8,8,0,0,0,284,429.1a8.36,8.36,0,0,0,6.25,2.27,12,12,0,0,0,5.18-1.29,13.29,13.29,0,0,0,4.61-3.67,3.27,3.27,0,0,0,.22-.32,7.25,7.25,0,0,0,7.45,5.28,8.44,8.44,0,0,0,4.79-1.39,16.26,16.26,0,0,0,2.24-1.81,7.45,7.45,0,0,0,2,2,7.27,7.27,0,0,0,4.2,1.19,7.56,7.56,0,0,0,5.2-2.07,10.23,10.23,0,0,0,3.07-5.51,20.29,20.29,0,0,0,3.17-.38c0,.36,0,.71,0,1.07a15.71,15.71,0,0,0,.64,5.25,2.24,2.24,0,0,0,2.19,1.64,2.36,2.36,0,0,0,1.86-.68,6.4,6.4,0,0,0,1-2.6,29.45,29.45,0,0,1,1.6-4.75,19.28,19.28,0,0,1,2-3.64q1-1.37,1.62-1.37.45,0,.45.65,0,.29-.08,1.11a6.25,6.25,0,0,0-.12,1.23,4,4,0,0,0,1.13,3,4.54,4.54,0,0,0,3.3,1.11,6.67,6.67,0,0,0,3-.69v.69a7.26,7.26,0,0,0,1.18,4.24,3.56,3.56,0,0,0,3,1.7,4.31,4.31,0,0,0,3.11-1.54,10.42,10.42,0,0,0,2.29-4.49q-.37,2.83-.65,4.34l-.12.94a54.21,54.21,0,0,0-6.78,6,17.83,17.83,0,0,0-3.28,4.61,9.74,9.74,0,0,0-.88,3.93,4.53,4.53,0,0,0,1.31,3.38,4.65,4.65,0,0,0,3.4,1.29q4.43,0,7.09-6.15T364.83,427q.16-1.06,1.11-6.84,1.06-6,1.06-7A.91.91,0,0,0,366.62,412.31ZM306,405.12a21.9,21.9,0,0,1,1.43-4.26q.76-1.54,1.37-1.54.9,0,.9,2.42a11.39,11.39,0,0,1-1.21,4.73,14,14,0,0,1-3.63,4.69,57.05,57.05,0,0,1,1.13-6Zm-68.57.7a45.45,45.45,0,0,1,2.16-6.62q1.09-2.5,1.82-2.5,1,0,1,2.5a19.52,19.52,0,0,1-1.8,7.56,29.93,29.93,0,0,1-5,7.77Q236.38,409.93,237.45,405.82Zm15.78,17.52a6.89,6.89,0,0,1-1.19,2.83,2.26,2.26,0,0,1-1.72,1.06,1.74,1.74,0,0,1-1.41-.61,2.94,2.94,0,0,1-.5-1.89,11.1,11.1,0,0,1,.86-4.34,8.7,8.7,0,0,1,2.32-3.3,5,5,0,0,1,3.18-1.29ZM270,405.76a39.21,39.21,0,0,1,1.78-6.62q1-2.44,1.78-2.44.53,0,.84.7a5.14,5.14,0,0,1,.31,2,17.55,17.55,0,0,1-1.62,6.74q-1.62,3.8-4.31,8.75a83.12,83.12,0,0,1,1.22-9.14Zm3.69,20.2a3,3,0,0,1-2.25,1.06,2.52,2.52,0,0,1-2.07-1.23,6.08,6.08,0,0,1-.88-3.57,7.79,7.79,0,0,1,1.13-4.45,3.32,3.32,0,0,1,2.81-1.66h.11a10,10,0,0,0-.16,1.56,6.67,6.67,0,0,0,.68,2.94,5.65,5.65,0,0,0,1.95,2.25,5.79,5.79,0,0,1-1.3,3.09Zm49.89,0a3,3,0,0,1-2.27,1.06,2.54,2.54,0,0,1-2.07-1.19,5.72,5.72,0,0,1-.88-3.44,7.78,7.78,0,0,1,1.09-4.45,3.19,3.19,0,0,1,2.73-1.57h.2a7.11,7.11,0,0,0-.12,1.31,6.67,6.67,0,0,0,.68,2.94,5.65,5.65,0,0,0,1.95,2.25,5.88,5.88,0,0,1-1.28,3.08Zm32.72,17.5q-1.27,2.38-2.29,2.38a.94.94,0,0,1-.88-.44,2.23,2.23,0,0,1-.27-1.15,7.38,7.38,0,0,1,1.41-3.83,23.31,23.31,0,0,1,4.57-4.86,34.79,34.79,0,0,1-2.54,7.9Z" transform="translate(-229.37 -392.64)"/></g></g></svg>